%
M48
M72
T01C0.0236
T02C0.0320
T03C0.0394
T04C0.0400
T05C0.0787
T06C0.1004
T07C0.1102
T08C0.1260
%
T01
X6650Y8600
X13900Y6850
X13900Y3975
X18650Y3975
X18650Y6975
X13900Y11350
X13900Y13475
X13900Y16350
X18650Y16475
X18650Y13475
X13900Y20850
X13900Y22975
X13900Y25850
X18650Y25975
X18650Y22975
X14150Y30350
X13900Y32475
X13900Y35350
X18650Y35475
X18650Y32475
X6650Y27600
X6650Y18100
X34900Y15225
X40400Y14850
X40400Y12100
X35900Y11600
X34900Y5725
X40400Y5350
X40400Y2600
X35900Y2100
X49900Y8850
X50500Y10850
X50900Y18350
X50900Y20350
X53800Y21400
X53800Y22500
X50900Y27975
X50900Y29850
X40400Y31100
X40400Y33850
X34900Y34225
X35900Y30600
X34900Y24725
X40400Y24350
X40400Y21600
X35900Y21100
T02
X37275Y21850
X37275Y22850
X37275Y24850
X37275Y25850
X37275Y31350
X37275Y32350
X37275Y34350
X37275Y35350
X16275Y35350
X16275Y34350
X16275Y32350
X16275Y31350
X16275Y25850
X16275Y24850
X16275Y22850
X16275Y21850
X16275Y16350
X16275Y15350
X16275Y13350
X16275Y12350
X16275Y6850
X16275Y5850
X16275Y3850
X16275Y2850
X37275Y2850
X37275Y3850
X37275Y5850
X37275Y6850
X37275Y12350
X37275Y13350
X37275Y15350
X37275Y16350
T03
X59007Y16285
X60007Y16285
X60007Y17285
X59007Y17285
X59007Y18285
X60007Y18285
X60007Y19285
X59007Y19285
X59007Y20285
X60007Y20285
X60007Y21285
X59007Y21285
X59007Y22285
X60007Y22285
X60007Y23285
X59007Y23285
X59007Y24285
X60007Y24285
X60007Y25285
X59007Y25285
X59007Y26285
X60007Y26285
X60007Y27285
X59007Y27285
X59007Y28285
X60007Y28285
X61007Y28285
X61007Y27285
X61007Y26285
X61007Y25285
X61007Y24285
X61007Y23285
X61007Y22285
X61007Y21285
X61007Y20285
X61007Y19285
X61007Y18285
X61007Y17285
X61007Y16285
X61007Y15285
X60007Y15285
X59007Y15285
X59007Y14285
X60007Y14285
X61007Y14285
X61007Y13285
X60007Y13285
X59007Y13285
X59007Y12285
X60007Y12285
X61007Y12285
X61007Y11285
X60007Y11285
X59007Y11285
X59007Y10285
X60007Y10285
X60007Y9285
X59007Y9285
X59007Y8285
X60007Y8285
X60007Y7285
X59007Y7285
X59007Y6285
X60007Y6285
X60007Y5285
X59007Y5285
X59007Y4285
X60007Y4285
X61007Y4285
X61007Y5285
X61007Y6285
X61007Y7285
X61007Y8285
X61007Y9285
X61007Y10285
X61007Y29285
X60007Y29285
X59007Y29285
X59007Y30285
X60007Y30285
X61007Y30285
X61007Y31285
X60007Y31285
X59007Y31285
X59007Y32285
X60007Y32285
X61007Y32285
X61007Y33285
X60007Y33285
X59007Y33285
X59007Y34285
X60007Y34285
X61007Y34285
X61007Y35285
X60007Y35285
X59007Y35285
T04
X11650Y35350
X11650Y34350
X11650Y33350
X11650Y32350
X11650Y31350
X11650Y25850
X11650Y24850
X11650Y23850
X11650Y22850
X11650Y21850
X11650Y16350
X11650Y15350
X11650Y14350
X11650Y13350
X11650Y12350
X11650Y6850
X11650Y5850
X11650Y4850
X11650Y3850
X11650Y2850
T05
X25915Y1970
X27885Y1970
X29915Y3720
X31885Y3720
X27885Y4730
X25915Y4730
X29915Y6480
X31885Y6480
X27885Y11470
X25915Y11470
X25915Y14230
X27885Y14230
X29915Y13220
X31885Y13220
X31885Y15980
X29915Y15980
X27885Y20970
X25915Y20970
X25915Y23730
X27885Y23730
X29915Y22720
X31885Y22720
X31885Y25480
X29915Y25480
X27885Y30470
X25915Y30470
X25915Y33230
X27885Y33230
X29915Y32220
X31885Y32220
X31885Y34980
X29915Y34980
X47165Y33230
X49135Y33230
X49135Y30470
X47165Y30470
X54415Y34520
X56385Y34520
X56385Y37280
X54415Y37280
X49135Y23730
X47165Y23730
X47165Y20970
X49135Y20970
X49135Y14230
X47165Y14230
X47165Y11470
X49135Y11470
X54715Y8980
X56685Y8980
X56685Y6220
X54715Y6220
X49135Y4730
X47165Y4730
X47165Y1970
X49135Y1970
T06
X1281Y2285
X1281Y37285
T07
X62007Y37285
X62007Y2285
T08
X34150Y1850
X34150Y11350
X34150Y20850
X34150Y30350
M30
