G75*
%MOIN*%
%OFA0B0*%
%FSLAX24Y24*%
%IPPOS*%
%LPD*%
%AMOC8*
5,1,8,0,0,1.08239X$1,22.5*
%
%ADD10C,0.0000*%
%ADD11C,0.0160*%
%ADD12C,0.0320*%
%ADD13C,0.0120*%
%ADD14C,0.0070*%
%ADD15C,0.0080*%
%ADD16C,0.0040*%
%ADD17C,0.0060*%
%ADD18C,0.0100*%
%ADD19C,0.0050*%
D10*
X000100Y000100D02*
X000100Y039470D01*
X063092Y039470D01*
X063092Y000100D01*
X000100Y000100D01*
X000779Y002285D02*
X000781Y002329D01*
X000787Y002373D01*
X000797Y002417D01*
X000810Y002459D01*
X000827Y002500D01*
X000848Y002539D01*
X000872Y002576D01*
X000900Y002611D01*
X000930Y002644D01*
X000963Y002673D01*
X000999Y002700D01*
X001036Y002723D01*
X001076Y002743D01*
X001117Y002760D01*
X001160Y002772D01*
X001204Y002781D01*
X001248Y002786D01*
X001292Y002787D01*
X001336Y002784D01*
X001380Y002777D01*
X001423Y002766D01*
X001465Y002752D01*
X001506Y002734D01*
X001545Y002712D01*
X001581Y002687D01*
X001616Y002659D01*
X001648Y002628D01*
X001676Y002594D01*
X001702Y002558D01*
X001725Y002520D01*
X001744Y002480D01*
X001759Y002438D01*
X001771Y002395D01*
X001779Y002351D01*
X001783Y002307D01*
X001783Y002263D01*
X001779Y002219D01*
X001771Y002175D01*
X001759Y002132D01*
X001744Y002090D01*
X001725Y002050D01*
X001702Y002012D01*
X001676Y001976D01*
X001648Y001942D01*
X001616Y001911D01*
X001581Y001883D01*
X001545Y001858D01*
X001506Y001836D01*
X001465Y001818D01*
X001423Y001804D01*
X001380Y001793D01*
X001336Y001786D01*
X001292Y001783D01*
X001248Y001784D01*
X001204Y001789D01*
X001160Y001798D01*
X001117Y001810D01*
X001076Y001827D01*
X001036Y001847D01*
X000999Y001870D01*
X000963Y001897D01*
X000930Y001926D01*
X000900Y001959D01*
X000872Y001994D01*
X000848Y002031D01*
X000827Y002070D01*
X000810Y002111D01*
X000797Y002153D01*
X000787Y002197D01*
X000781Y002241D01*
X000779Y002285D01*
X033520Y001850D02*
X033522Y001900D01*
X033528Y001950D01*
X033538Y001999D01*
X033552Y002047D01*
X033569Y002094D01*
X033590Y002139D01*
X033615Y002183D01*
X033643Y002224D01*
X033675Y002263D01*
X033709Y002300D01*
X033746Y002334D01*
X033786Y002364D01*
X033828Y002391D01*
X033872Y002415D01*
X033918Y002436D01*
X033965Y002452D01*
X034013Y002465D01*
X034063Y002474D01*
X034112Y002479D01*
X034163Y002480D01*
X034213Y002477D01*
X034262Y002470D01*
X034311Y002459D01*
X034359Y002444D01*
X034405Y002426D01*
X034450Y002404D01*
X034493Y002378D01*
X034534Y002349D01*
X034573Y002317D01*
X034609Y002282D01*
X034641Y002244D01*
X034671Y002204D01*
X034698Y002161D01*
X034721Y002117D01*
X034740Y002071D01*
X034756Y002023D01*
X034768Y001974D01*
X034776Y001925D01*
X034780Y001875D01*
X034780Y001825D01*
X034776Y001775D01*
X034768Y001726D01*
X034756Y001677D01*
X034740Y001629D01*
X034721Y001583D01*
X034698Y001539D01*
X034671Y001496D01*
X034641Y001456D01*
X034609Y001418D01*
X034573Y001383D01*
X034534Y001351D01*
X034493Y001322D01*
X034450Y001296D01*
X034405Y001274D01*
X034359Y001256D01*
X034311Y001241D01*
X034262Y001230D01*
X034213Y001223D01*
X034163Y001220D01*
X034112Y001221D01*
X034063Y001226D01*
X034013Y001235D01*
X033965Y001248D01*
X033918Y001264D01*
X033872Y001285D01*
X033828Y001309D01*
X033786Y001336D01*
X033746Y001366D01*
X033709Y001400D01*
X033675Y001437D01*
X033643Y001476D01*
X033615Y001517D01*
X033590Y001561D01*
X033569Y001606D01*
X033552Y001653D01*
X033538Y001701D01*
X033528Y001750D01*
X033522Y001800D01*
X033520Y001850D01*
X033520Y011350D02*
X033522Y011400D01*
X033528Y011450D01*
X033538Y011499D01*
X033552Y011547D01*
X033569Y011594D01*
X033590Y011639D01*
X033615Y011683D01*
X033643Y011724D01*
X033675Y011763D01*
X033709Y011800D01*
X033746Y011834D01*
X033786Y011864D01*
X033828Y011891D01*
X033872Y011915D01*
X033918Y011936D01*
X033965Y011952D01*
X034013Y011965D01*
X034063Y011974D01*
X034112Y011979D01*
X034163Y011980D01*
X034213Y011977D01*
X034262Y011970D01*
X034311Y011959D01*
X034359Y011944D01*
X034405Y011926D01*
X034450Y011904D01*
X034493Y011878D01*
X034534Y011849D01*
X034573Y011817D01*
X034609Y011782D01*
X034641Y011744D01*
X034671Y011704D01*
X034698Y011661D01*
X034721Y011617D01*
X034740Y011571D01*
X034756Y011523D01*
X034768Y011474D01*
X034776Y011425D01*
X034780Y011375D01*
X034780Y011325D01*
X034776Y011275D01*
X034768Y011226D01*
X034756Y011177D01*
X034740Y011129D01*
X034721Y011083D01*
X034698Y011039D01*
X034671Y010996D01*
X034641Y010956D01*
X034609Y010918D01*
X034573Y010883D01*
X034534Y010851D01*
X034493Y010822D01*
X034450Y010796D01*
X034405Y010774D01*
X034359Y010756D01*
X034311Y010741D01*
X034262Y010730D01*
X034213Y010723D01*
X034163Y010720D01*
X034112Y010721D01*
X034063Y010726D01*
X034013Y010735D01*
X033965Y010748D01*
X033918Y010764D01*
X033872Y010785D01*
X033828Y010809D01*
X033786Y010836D01*
X033746Y010866D01*
X033709Y010900D01*
X033675Y010937D01*
X033643Y010976D01*
X033615Y011017D01*
X033590Y011061D01*
X033569Y011106D01*
X033552Y011153D01*
X033538Y011201D01*
X033528Y011250D01*
X033522Y011300D01*
X033520Y011350D01*
X033520Y020850D02*
X033522Y020900D01*
X033528Y020950D01*
X033538Y020999D01*
X033552Y021047D01*
X033569Y021094D01*
X033590Y021139D01*
X033615Y021183D01*
X033643Y021224D01*
X033675Y021263D01*
X033709Y021300D01*
X033746Y021334D01*
X033786Y021364D01*
X033828Y021391D01*
X033872Y021415D01*
X033918Y021436D01*
X033965Y021452D01*
X034013Y021465D01*
X034063Y021474D01*
X034112Y021479D01*
X034163Y021480D01*
X034213Y021477D01*
X034262Y021470D01*
X034311Y021459D01*
X034359Y021444D01*
X034405Y021426D01*
X034450Y021404D01*
X034493Y021378D01*
X034534Y021349D01*
X034573Y021317D01*
X034609Y021282D01*
X034641Y021244D01*
X034671Y021204D01*
X034698Y021161D01*
X034721Y021117D01*
X034740Y021071D01*
X034756Y021023D01*
X034768Y020974D01*
X034776Y020925D01*
X034780Y020875D01*
X034780Y020825D01*
X034776Y020775D01*
X034768Y020726D01*
X034756Y020677D01*
X034740Y020629D01*
X034721Y020583D01*
X034698Y020539D01*
X034671Y020496D01*
X034641Y020456D01*
X034609Y020418D01*
X034573Y020383D01*
X034534Y020351D01*
X034493Y020322D01*
X034450Y020296D01*
X034405Y020274D01*
X034359Y020256D01*
X034311Y020241D01*
X034262Y020230D01*
X034213Y020223D01*
X034163Y020220D01*
X034112Y020221D01*
X034063Y020226D01*
X034013Y020235D01*
X033965Y020248D01*
X033918Y020264D01*
X033872Y020285D01*
X033828Y020309D01*
X033786Y020336D01*
X033746Y020366D01*
X033709Y020400D01*
X033675Y020437D01*
X033643Y020476D01*
X033615Y020517D01*
X033590Y020561D01*
X033569Y020606D01*
X033552Y020653D01*
X033538Y020701D01*
X033528Y020750D01*
X033522Y020800D01*
X033520Y020850D01*
X033520Y030350D02*
X033522Y030400D01*
X033528Y030450D01*
X033538Y030499D01*
X033552Y030547D01*
X033569Y030594D01*
X033590Y030639D01*
X033615Y030683D01*
X033643Y030724D01*
X033675Y030763D01*
X033709Y030800D01*
X033746Y030834D01*
X033786Y030864D01*
X033828Y030891D01*
X033872Y030915D01*
X033918Y030936D01*
X033965Y030952D01*
X034013Y030965D01*
X034063Y030974D01*
X034112Y030979D01*
X034163Y030980D01*
X034213Y030977D01*
X034262Y030970D01*
X034311Y030959D01*
X034359Y030944D01*
X034405Y030926D01*
X034450Y030904D01*
X034493Y030878D01*
X034534Y030849D01*
X034573Y030817D01*
X034609Y030782D01*
X034641Y030744D01*
X034671Y030704D01*
X034698Y030661D01*
X034721Y030617D01*
X034740Y030571D01*
X034756Y030523D01*
X034768Y030474D01*
X034776Y030425D01*
X034780Y030375D01*
X034780Y030325D01*
X034776Y030275D01*
X034768Y030226D01*
X034756Y030177D01*
X034740Y030129D01*
X034721Y030083D01*
X034698Y030039D01*
X034671Y029996D01*
X034641Y029956D01*
X034609Y029918D01*
X034573Y029883D01*
X034534Y029851D01*
X034493Y029822D01*
X034450Y029796D01*
X034405Y029774D01*
X034359Y029756D01*
X034311Y029741D01*
X034262Y029730D01*
X034213Y029723D01*
X034163Y029720D01*
X034112Y029721D01*
X034063Y029726D01*
X034013Y029735D01*
X033965Y029748D01*
X033918Y029764D01*
X033872Y029785D01*
X033828Y029809D01*
X033786Y029836D01*
X033746Y029866D01*
X033709Y029900D01*
X033675Y029937D01*
X033643Y029976D01*
X033615Y030017D01*
X033590Y030061D01*
X033569Y030106D01*
X033552Y030153D01*
X033538Y030201D01*
X033528Y030250D01*
X033522Y030300D01*
X033520Y030350D01*
X061456Y037285D02*
X061458Y037332D01*
X061464Y037378D01*
X061474Y037424D01*
X061487Y037469D01*
X061505Y037512D01*
X061526Y037554D01*
X061550Y037594D01*
X061578Y037631D01*
X061609Y037666D01*
X061643Y037699D01*
X061679Y037728D01*
X061718Y037754D01*
X061759Y037777D01*
X061802Y037796D01*
X061846Y037812D01*
X061891Y037824D01*
X061937Y037832D01*
X061984Y037836D01*
X062030Y037836D01*
X062077Y037832D01*
X062123Y037824D01*
X062168Y037812D01*
X062212Y037796D01*
X062255Y037777D01*
X062296Y037754D01*
X062335Y037728D01*
X062371Y037699D01*
X062405Y037666D01*
X062436Y037631D01*
X062464Y037594D01*
X062488Y037554D01*
X062509Y037512D01*
X062527Y037469D01*
X062540Y037424D01*
X062550Y037378D01*
X062556Y037332D01*
X062558Y037285D01*
X062556Y037238D01*
X062550Y037192D01*
X062540Y037146D01*
X062527Y037101D01*
X062509Y037058D01*
X062488Y037016D01*
X062464Y036976D01*
X062436Y036939D01*
X062405Y036904D01*
X062371Y036871D01*
X062335Y036842D01*
X062296Y036816D01*
X062255Y036793D01*
X062212Y036774D01*
X062168Y036758D01*
X062123Y036746D01*
X062077Y036738D01*
X062030Y036734D01*
X061984Y036734D01*
X061937Y036738D01*
X061891Y036746D01*
X061846Y036758D01*
X061802Y036774D01*
X061759Y036793D01*
X061718Y036816D01*
X061679Y036842D01*
X061643Y036871D01*
X061609Y036904D01*
X061578Y036939D01*
X061550Y036976D01*
X061526Y037016D01*
X061505Y037058D01*
X061487Y037101D01*
X061474Y037146D01*
X061464Y037192D01*
X061458Y037238D01*
X061456Y037285D01*
X061456Y002285D02*
X061458Y002332D01*
X061464Y002378D01*
X061474Y002424D01*
X061487Y002469D01*
X061505Y002512D01*
X061526Y002554D01*
X061550Y002594D01*
X061578Y002631D01*
X061609Y002666D01*
X061643Y002699D01*
X061679Y002728D01*
X061718Y002754D01*
X061759Y002777D01*
X061802Y002796D01*
X061846Y002812D01*
X061891Y002824D01*
X061937Y002832D01*
X061984Y002836D01*
X062030Y002836D01*
X062077Y002832D01*
X062123Y002824D01*
X062168Y002812D01*
X062212Y002796D01*
X062255Y002777D01*
X062296Y002754D01*
X062335Y002728D01*
X062371Y002699D01*
X062405Y002666D01*
X062436Y002631D01*
X062464Y002594D01*
X062488Y002554D01*
X062509Y002512D01*
X062527Y002469D01*
X062540Y002424D01*
X062550Y002378D01*
X062556Y002332D01*
X062558Y002285D01*
X062556Y002238D01*
X062550Y002192D01*
X062540Y002146D01*
X062527Y002101D01*
X062509Y002058D01*
X062488Y002016D01*
X062464Y001976D01*
X062436Y001939D01*
X062405Y001904D01*
X062371Y001871D01*
X062335Y001842D01*
X062296Y001816D01*
X062255Y001793D01*
X062212Y001774D01*
X062168Y001758D01*
X062123Y001746D01*
X062077Y001738D01*
X062030Y001734D01*
X061984Y001734D01*
X061937Y001738D01*
X061891Y001746D01*
X061846Y001758D01*
X061802Y001774D01*
X061759Y001793D01*
X061718Y001816D01*
X061679Y001842D01*
X061643Y001871D01*
X061609Y001904D01*
X061578Y001939D01*
X061550Y001976D01*
X061526Y002016D01*
X061505Y002058D01*
X061487Y002101D01*
X061474Y002146D01*
X061464Y002192D01*
X061458Y002238D01*
X061456Y002285D01*
X000779Y037285D02*
X000781Y037329D01*
X000787Y037373D01*
X000797Y037417D01*
X000810Y037459D01*
X000827Y037500D01*
X000848Y037539D01*
X000872Y037576D01*
X000900Y037611D01*
X000930Y037644D01*
X000963Y037673D01*
X000999Y037700D01*
X001036Y037723D01*
X001076Y037743D01*
X001117Y037760D01*
X001160Y037772D01*
X001204Y037781D01*
X001248Y037786D01*
X001292Y037787D01*
X001336Y037784D01*
X001380Y037777D01*
X001423Y037766D01*
X001465Y037752D01*
X001506Y037734D01*
X001545Y037712D01*
X001581Y037687D01*
X001616Y037659D01*
X001648Y037628D01*
X001676Y037594D01*
X001702Y037558D01*
X001725Y037520D01*
X001744Y037480D01*
X001759Y037438D01*
X001771Y037395D01*
X001779Y037351D01*
X001783Y037307D01*
X001783Y037263D01*
X001779Y037219D01*
X001771Y037175D01*
X001759Y037132D01*
X001744Y037090D01*
X001725Y037050D01*
X001702Y037012D01*
X001676Y036976D01*
X001648Y036942D01*
X001616Y036911D01*
X001581Y036883D01*
X001545Y036858D01*
X001506Y036836D01*
X001465Y036818D01*
X001423Y036804D01*
X001380Y036793D01*
X001336Y036786D01*
X001292Y036783D01*
X001248Y036784D01*
X001204Y036789D01*
X001160Y036798D01*
X001117Y036810D01*
X001076Y036827D01*
X001036Y036847D01*
X000999Y036870D01*
X000963Y036897D01*
X000930Y036926D01*
X000900Y036959D01*
X000872Y036994D01*
X000848Y037031D01*
X000827Y037070D01*
X000810Y037111D01*
X000797Y037153D01*
X000787Y037197D01*
X000781Y037241D01*
X000779Y037285D01*
D11*
X013400Y036600D02*
X013400Y033350D01*
X024900Y033350D01*
X024900Y036600D01*
X013400Y036600D01*
X013400Y033350D02*
X013400Y030225D01*
X024900Y030225D01*
X024900Y033350D01*
X034400Y033350D02*
X034400Y030225D01*
X045900Y030225D01*
X045900Y033350D01*
X045900Y036600D01*
X034400Y036600D01*
X034400Y033350D01*
X045900Y033350D01*
X045900Y027100D02*
X045900Y023850D01*
X034400Y023850D01*
X034400Y027100D01*
X045900Y027100D01*
X045900Y023850D02*
X045900Y020725D01*
X034400Y020725D01*
X034400Y023850D01*
X024900Y023850D02*
X024900Y020725D01*
X013400Y020725D01*
X013400Y023850D01*
X013400Y027100D01*
X024900Y027100D01*
X024900Y023850D01*
X013400Y023850D01*
X013400Y017600D02*
X024900Y017600D01*
X024900Y014350D01*
X013400Y014350D01*
X013400Y017600D01*
X013400Y014350D02*
X013400Y011225D01*
X024900Y011225D01*
X024900Y014350D01*
X034400Y014350D02*
X034400Y011225D01*
X045900Y011225D01*
X045900Y014350D01*
X045900Y017600D01*
X034400Y017600D01*
X034400Y014350D01*
X045900Y014350D01*
X045900Y008100D02*
X045900Y004850D01*
X034400Y004850D01*
X034400Y008100D01*
X045900Y008100D01*
X045900Y004850D02*
X045900Y001725D01*
X034400Y001725D01*
X034400Y004850D01*
X024900Y004850D02*
X024900Y001725D01*
X013400Y001725D01*
X013400Y004850D01*
X013400Y008100D01*
X024900Y008100D01*
X024900Y004850D01*
X013400Y004850D01*
D12*
X004400Y001100D02*
X004400Y010100D01*
X053350Y010100D01*
X053350Y001100D01*
X004400Y001100D01*
X004400Y010100D02*
X004400Y019600D01*
X053350Y019600D01*
X053350Y010100D01*
X053350Y019600D02*
X053350Y029100D01*
X004400Y029100D01*
X004400Y019600D01*
X004400Y029100D02*
X004400Y038350D01*
X053350Y038350D01*
X053350Y029100D01*
D13*
X010250Y028061D02*
X010019Y028291D01*
X009559Y028291D01*
X009329Y028061D01*
X008868Y028291D02*
X008868Y026910D01*
X009329Y026910D02*
X010250Y027831D01*
X010250Y028061D01*
X010250Y026910D02*
X009329Y026910D01*
X008868Y027601D02*
X007948Y027601D01*
X007487Y028061D02*
X007257Y028291D01*
X006797Y028291D01*
X006566Y028061D01*
X006566Y027140D01*
X006797Y026910D01*
X007257Y026910D01*
X007487Y027140D01*
X007948Y026910D02*
X007948Y028291D01*
X007948Y036410D02*
X007948Y037791D01*
X007487Y037561D02*
X007257Y037791D01*
X006797Y037791D01*
X006566Y037561D01*
X006566Y036640D01*
X006797Y036410D01*
X007257Y036410D01*
X007487Y036640D01*
X007948Y037101D02*
X008868Y037101D01*
X009329Y037331D02*
X009789Y037791D01*
X009789Y036410D01*
X009329Y036410D02*
X010250Y036410D01*
X008868Y036410D02*
X008868Y037791D01*
X008868Y018791D02*
X008868Y017410D01*
X009329Y017640D02*
X009559Y017410D01*
X010019Y017410D01*
X010250Y017640D01*
X010250Y017870D01*
X010019Y018101D01*
X009789Y018101D01*
X010019Y018101D02*
X010250Y018331D01*
X010250Y018561D01*
X010019Y018791D01*
X009559Y018791D01*
X009329Y018561D01*
X008868Y018101D02*
X007948Y018101D01*
X007487Y018561D02*
X007257Y018791D01*
X006797Y018791D01*
X006566Y018561D01*
X006566Y017640D01*
X006797Y017410D01*
X007257Y017410D01*
X007487Y017640D01*
X007948Y017410D02*
X007948Y018791D01*
X007948Y009291D02*
X007948Y007910D01*
X007487Y008140D02*
X007257Y007910D01*
X006797Y007910D01*
X006566Y008140D01*
X006566Y009061D01*
X006797Y009291D01*
X007257Y009291D01*
X007487Y009061D01*
X007948Y008601D02*
X008868Y008601D01*
X009329Y008601D02*
X010250Y008601D01*
X010019Y009291D02*
X010019Y007910D01*
X008868Y007910D02*
X008868Y009291D01*
X009329Y008601D02*
X010019Y009291D01*
D14*
X009935Y006986D02*
X009935Y006771D01*
X010079Y006843D01*
X010150Y006843D01*
X010222Y006771D01*
X010222Y006627D01*
X010150Y006556D01*
X010007Y006556D01*
X009935Y006627D01*
X009935Y006986D02*
X010222Y006986D01*
X010029Y003006D02*
X010029Y002576D01*
X010172Y002576D02*
X009885Y002576D01*
X009885Y002863D02*
X010029Y003006D01*
X010029Y012076D02*
X010029Y012506D01*
X009885Y012363D01*
X009885Y012076D02*
X010172Y012076D01*
X010150Y016056D02*
X010007Y016056D01*
X009935Y016127D01*
X009935Y016271D02*
X010079Y016343D01*
X010150Y016343D01*
X010222Y016271D01*
X010222Y016127D01*
X010150Y016056D01*
X009935Y016271D02*
X009935Y016486D01*
X010222Y016486D01*
X010172Y021576D02*
X009885Y021576D01*
X010029Y021576D02*
X010029Y022006D01*
X009885Y021863D01*
X010007Y025556D02*
X009935Y025627D01*
X010007Y025556D02*
X010150Y025556D01*
X010222Y025627D01*
X010222Y025771D01*
X010150Y025843D01*
X010079Y025843D01*
X009935Y025771D01*
X009935Y025986D01*
X010222Y025986D01*
X010172Y031076D02*
X009885Y031076D01*
X010029Y031076D02*
X010029Y031506D01*
X009885Y031363D01*
X010007Y035056D02*
X009935Y035127D01*
X010007Y035056D02*
X010150Y035056D01*
X010222Y035127D01*
X010222Y035271D01*
X010150Y035343D01*
X010079Y035343D01*
X009935Y035271D01*
X009935Y035486D01*
X010222Y035486D01*
X025685Y034780D02*
X026212Y034780D01*
X026477Y034912D02*
X026740Y035176D01*
X026740Y034385D01*
X026477Y034385D02*
X027004Y034385D01*
X027269Y034385D02*
X027796Y034912D01*
X027796Y035044D01*
X027664Y035176D01*
X027401Y035176D01*
X027269Y035044D01*
X028061Y035176D02*
X028061Y034649D01*
X028324Y034385D01*
X028588Y034649D01*
X028588Y035176D01*
X027796Y034385D02*
X027269Y034385D01*
X025949Y034517D02*
X025949Y035044D01*
X029685Y036530D02*
X030212Y036530D01*
X030477Y036662D02*
X030740Y036926D01*
X030740Y036135D01*
X030477Y036135D02*
X031004Y036135D01*
X031269Y036135D02*
X031796Y036662D01*
X031796Y036794D01*
X031664Y036926D01*
X031401Y036926D01*
X031269Y036794D01*
X031269Y036135D02*
X031796Y036135D01*
X032061Y036399D02*
X032324Y036135D01*
X032588Y036399D01*
X032588Y036926D01*
X032061Y036926D02*
X032061Y036399D01*
X032061Y027426D02*
X032061Y026899D01*
X032324Y026635D01*
X032588Y026899D01*
X032588Y027426D01*
X031796Y027294D02*
X031664Y027426D01*
X031401Y027426D01*
X031269Y027294D01*
X031796Y027294D02*
X031796Y027162D01*
X031269Y026635D01*
X031796Y026635D01*
X031004Y026635D02*
X030477Y026635D01*
X030740Y026635D02*
X030740Y027426D01*
X030477Y027162D01*
X030212Y027030D02*
X029685Y027030D01*
X028588Y025676D02*
X028588Y025149D01*
X028324Y024885D01*
X028061Y025149D01*
X028061Y025676D01*
X027796Y025544D02*
X027664Y025676D01*
X027401Y025676D01*
X027269Y025544D01*
X027796Y025544D02*
X027796Y025412D01*
X027269Y024885D01*
X027796Y024885D01*
X027004Y024885D02*
X026477Y024885D01*
X026740Y024885D02*
X026740Y025676D01*
X026477Y025412D01*
X026212Y025280D02*
X025685Y025280D01*
X025949Y025017D02*
X025949Y025544D01*
X030740Y017926D02*
X030740Y017135D01*
X030477Y017135D02*
X031004Y017135D01*
X031269Y017135D02*
X031796Y017662D01*
X031796Y017794D01*
X031664Y017926D01*
X031401Y017926D01*
X031269Y017794D01*
X030740Y017926D02*
X030477Y017662D01*
X030212Y017530D02*
X029685Y017530D01*
X031269Y017135D02*
X031796Y017135D01*
X032061Y017399D02*
X032324Y017135D01*
X032588Y017399D01*
X032588Y017926D01*
X032061Y017926D02*
X032061Y017399D01*
X028588Y016176D02*
X028588Y015649D01*
X028324Y015385D01*
X028061Y015649D01*
X028061Y016176D01*
X027796Y016044D02*
X027664Y016176D01*
X027401Y016176D01*
X027269Y016044D01*
X027796Y016044D02*
X027796Y015912D01*
X027269Y015385D01*
X027796Y015385D01*
X027004Y015385D02*
X026477Y015385D01*
X026740Y015385D02*
X026740Y016176D01*
X026477Y015912D01*
X026212Y015780D02*
X025685Y015780D01*
X025949Y015517D02*
X025949Y016044D01*
X030740Y008426D02*
X030740Y007635D01*
X030477Y007635D02*
X031004Y007635D01*
X031269Y007635D02*
X031796Y008162D01*
X031796Y008294D01*
X031664Y008426D01*
X031401Y008426D01*
X031269Y008294D01*
X030740Y008426D02*
X030477Y008162D01*
X030212Y008030D02*
X029685Y008030D01*
X031269Y007635D02*
X031796Y007635D01*
X032061Y007899D02*
X032324Y007635D01*
X032588Y007899D01*
X032588Y008426D01*
X032061Y008426D02*
X032061Y007899D01*
X028588Y006676D02*
X028588Y006149D01*
X028324Y005885D01*
X028061Y006149D01*
X028061Y006676D01*
X027796Y006544D02*
X027664Y006676D01*
X027401Y006676D01*
X027269Y006544D01*
X027796Y006544D02*
X027796Y006412D01*
X027269Y005885D01*
X027796Y005885D01*
X027004Y005885D02*
X026477Y005885D01*
X026740Y005885D02*
X026740Y006676D01*
X026477Y006412D01*
X026212Y006280D02*
X025685Y006280D01*
X025949Y006017D02*
X025949Y006544D01*
X046657Y007952D02*
X047185Y007952D01*
X047449Y007952D02*
X047449Y008347D01*
X047976Y008347D01*
X048241Y008347D02*
X048241Y007820D01*
X048505Y007556D01*
X048768Y007820D01*
X048768Y008347D01*
X047976Y007952D02*
X047976Y007688D01*
X047845Y007556D01*
X047581Y007556D01*
X047449Y007688D01*
X047449Y007952D02*
X047713Y008083D01*
X047845Y008083D01*
X047976Y007952D01*
X047977Y006676D02*
X047977Y006280D01*
X048240Y006412D01*
X048372Y006412D01*
X048504Y006280D01*
X048504Y006017D01*
X048372Y005885D01*
X048109Y005885D01*
X047977Y006017D01*
X047712Y006280D02*
X047185Y006280D01*
X047449Y006017D02*
X047449Y006544D01*
X047977Y006676D02*
X048504Y006676D01*
X048769Y006676D02*
X048769Y006149D01*
X049032Y005885D01*
X049296Y006149D01*
X049296Y006676D01*
X049032Y015385D02*
X049296Y015649D01*
X049296Y016176D01*
X048769Y016176D02*
X048769Y015649D01*
X049032Y015385D01*
X048504Y015517D02*
X048372Y015385D01*
X048109Y015385D01*
X047977Y015517D01*
X047977Y015780D02*
X048240Y015912D01*
X048372Y015912D01*
X048504Y015780D01*
X048504Y015517D01*
X047977Y015780D02*
X047977Y016176D01*
X048504Y016176D01*
X047712Y015780D02*
X047185Y015780D01*
X047449Y015517D02*
X047449Y016044D01*
X047581Y017135D02*
X047449Y017267D01*
X047581Y017135D02*
X047845Y017135D01*
X047976Y017267D01*
X047976Y017530D01*
X047845Y017662D01*
X047713Y017662D01*
X047449Y017530D01*
X047449Y017926D01*
X047976Y017926D01*
X048241Y017926D02*
X048241Y017399D01*
X048505Y017135D01*
X048768Y017399D01*
X048768Y017926D01*
X047185Y017530D02*
X046657Y017530D01*
X048109Y024885D02*
X047977Y025017D01*
X048109Y024885D02*
X048372Y024885D01*
X048504Y025017D01*
X048504Y025280D01*
X048372Y025412D01*
X048240Y025412D01*
X047977Y025280D01*
X047977Y025676D01*
X048504Y025676D01*
X048769Y025676D02*
X048769Y025149D01*
X049032Y024885D01*
X049296Y025149D01*
X049296Y025676D01*
X047712Y025280D02*
X047185Y025280D01*
X047449Y025017D02*
X047449Y025544D01*
X047424Y026556D02*
X047292Y026688D01*
X047424Y026556D02*
X047687Y026556D01*
X047819Y026688D01*
X047819Y026952D01*
X047687Y027083D01*
X047555Y027083D01*
X047292Y026952D01*
X047292Y027347D01*
X047819Y027347D01*
X048084Y027347D02*
X048084Y026820D01*
X048347Y026556D01*
X048611Y026820D01*
X048611Y027347D01*
X047027Y026952D02*
X046500Y026952D01*
X048109Y034385D02*
X047977Y034517D01*
X048109Y034385D02*
X048372Y034385D01*
X048504Y034517D01*
X048504Y034780D01*
X048372Y034912D01*
X048240Y034912D01*
X047977Y034780D01*
X047977Y035176D01*
X048504Y035176D01*
X048769Y035176D02*
X048769Y034649D01*
X049032Y034385D01*
X049296Y034649D01*
X049296Y035176D01*
X048423Y035853D02*
X048686Y036117D01*
X048686Y036644D01*
X048159Y036644D02*
X048159Y036117D01*
X048423Y035853D01*
X047895Y035985D02*
X047895Y036248D01*
X047763Y036380D01*
X047631Y036380D01*
X047367Y036248D01*
X047367Y036644D01*
X047895Y036644D01*
X047103Y036248D02*
X046576Y036248D01*
X047367Y035985D02*
X047499Y035853D01*
X047763Y035853D01*
X047895Y035985D01*
X047449Y035044D02*
X047449Y034517D01*
X047712Y034780D02*
X047185Y034780D01*
D15*
X053855Y033085D02*
X054469Y033085D01*
X054776Y033238D02*
X055083Y033545D01*
X055083Y032624D01*
X054776Y032624D02*
X055390Y032624D01*
X055697Y032624D02*
X056310Y033238D01*
X056310Y033392D01*
X056157Y033545D01*
X055850Y033545D01*
X055697Y033392D01*
X056617Y033545D02*
X056617Y032931D01*
X056924Y032624D01*
X057231Y032931D01*
X057231Y033545D01*
X056310Y032624D02*
X055697Y032624D01*
X055768Y030661D02*
X055768Y029740D01*
X055461Y029740D02*
X056075Y029740D01*
X055461Y030354D02*
X055768Y030661D01*
X055154Y030661D02*
X055154Y029893D01*
X055000Y029740D01*
X054693Y029740D01*
X054540Y029893D01*
X054540Y030661D01*
X055161Y011203D02*
X055161Y010282D01*
X054854Y010282D02*
X055468Y010282D01*
X055775Y010282D02*
X056389Y010896D01*
X056389Y011049D01*
X056236Y011203D01*
X055929Y011203D01*
X055775Y011049D01*
X055161Y011203D02*
X054854Y010896D01*
X054548Y010742D02*
X053934Y010742D01*
X054241Y011049D02*
X054241Y010435D01*
X055775Y010282D02*
X056389Y010282D01*
X056696Y010589D02*
X057003Y010282D01*
X057310Y010589D01*
X057310Y011203D01*
X056696Y011203D02*
X056696Y010589D01*
D16*
X061604Y004572D02*
X061527Y004496D01*
X061527Y004342D01*
X061604Y004265D01*
X061604Y004112D02*
X061681Y004112D01*
X061757Y004035D01*
X061834Y004112D01*
X061911Y004112D01*
X061987Y004035D01*
X061987Y003882D01*
X061911Y003805D01*
X061757Y003959D02*
X061757Y004035D01*
X061604Y004112D02*
X061527Y004035D01*
X061527Y003882D01*
X061604Y003805D01*
X061237Y003612D02*
X061237Y003382D01*
X061161Y003305D01*
X061084Y003382D01*
X061084Y003612D01*
X061007Y003612D02*
X061237Y003612D01*
X061007Y003612D02*
X060931Y003535D01*
X060931Y003382D01*
X060237Y003305D02*
X060237Y003535D01*
X060161Y003612D01*
X060007Y003612D01*
X059931Y003535D01*
X059931Y003305D01*
X059777Y003305D02*
X060237Y003305D01*
X059237Y003382D02*
X059237Y003612D01*
X059237Y003382D02*
X059161Y003305D01*
X059007Y003305D01*
X058931Y003382D01*
X058931Y003612D01*
X061604Y004572D02*
X061681Y004572D01*
X061987Y004265D01*
X061987Y004572D01*
X041398Y002504D02*
X041398Y002427D01*
X041321Y002350D01*
X041398Y002273D01*
X041398Y002197D01*
X041321Y002120D01*
X041168Y002120D01*
X041091Y002197D01*
X041244Y002350D02*
X041321Y002350D01*
X041398Y002504D02*
X041321Y002580D01*
X041168Y002580D01*
X041091Y002504D01*
X040937Y002350D02*
X040630Y002350D01*
X040861Y002580D01*
X040861Y002120D01*
X040477Y002197D02*
X040400Y002120D01*
X040247Y002120D01*
X040170Y002197D01*
X040170Y002504D01*
X040247Y002580D01*
X040400Y002580D01*
X040477Y002504D01*
X035130Y002941D02*
X035130Y003094D01*
X035053Y003171D01*
X034900Y003324D02*
X034900Y003631D01*
X034900Y003785D02*
X034900Y004092D01*
X035130Y004015D02*
X034670Y004015D01*
X034900Y003785D01*
X035130Y003554D02*
X034670Y003554D01*
X034900Y003324D01*
X034746Y003171D02*
X034670Y003094D01*
X034670Y002941D01*
X034746Y002864D01*
X035053Y002864D01*
X035130Y002941D01*
X035053Y005739D02*
X034746Y005739D01*
X034670Y005816D01*
X034670Y005969D01*
X034746Y006046D01*
X034900Y006199D02*
X034670Y006429D01*
X035130Y006429D01*
X035130Y006660D02*
X035053Y006660D01*
X034746Y006967D01*
X034670Y006967D01*
X034670Y006660D01*
X034900Y006506D02*
X034900Y006199D01*
X035053Y006046D02*
X035130Y005969D01*
X035130Y005816D01*
X035053Y005739D01*
X039920Y007572D02*
X039997Y007495D01*
X040150Y007495D01*
X040227Y007572D01*
X040380Y007725D02*
X040687Y007725D01*
X040841Y007725D02*
X041071Y007725D01*
X041148Y007648D01*
X041148Y007572D01*
X041071Y007495D01*
X040918Y007495D01*
X040841Y007572D01*
X040841Y007725D01*
X040994Y007879D01*
X041148Y007955D01*
X040611Y007955D02*
X040380Y007725D01*
X040227Y007879D02*
X040150Y007955D01*
X039997Y007955D01*
X039920Y007879D01*
X039920Y007572D01*
X040611Y007495D02*
X040611Y007955D01*
X040707Y011620D02*
X040630Y011697D01*
X040707Y011620D02*
X040861Y011620D01*
X040937Y011697D01*
X040937Y011773D01*
X040861Y011850D01*
X040784Y011850D01*
X040861Y011850D02*
X040937Y011927D01*
X040937Y012004D01*
X040861Y012080D01*
X040707Y012080D01*
X040630Y012004D01*
X040477Y012004D02*
X040400Y012080D01*
X040247Y012080D01*
X040170Y012004D01*
X040170Y011697D01*
X040247Y011620D01*
X040400Y011620D01*
X040477Y011697D01*
X041091Y011620D02*
X041398Y011620D01*
X041244Y011620D02*
X041244Y012080D01*
X041091Y011927D01*
X035130Y012441D02*
X035130Y012594D01*
X035053Y012671D01*
X035053Y012824D02*
X035130Y012901D01*
X035130Y013054D01*
X035053Y013131D01*
X034977Y013131D01*
X034900Y013054D01*
X034900Y012978D01*
X034900Y013054D02*
X034823Y013131D01*
X034746Y013131D01*
X034670Y013054D01*
X034670Y012901D01*
X034746Y012824D01*
X034746Y012671D02*
X034670Y012594D01*
X034670Y012441D01*
X034746Y012364D01*
X035053Y012364D01*
X035130Y012441D01*
X035130Y013285D02*
X034823Y013592D01*
X034746Y013592D01*
X034670Y013515D01*
X034670Y013361D01*
X034746Y013285D01*
X035130Y013285D02*
X035130Y013592D01*
X035053Y015239D02*
X034746Y015239D01*
X034670Y015316D01*
X034670Y015469D01*
X034746Y015546D01*
X034746Y015699D02*
X034670Y015776D01*
X034670Y015929D01*
X034746Y016006D01*
X034823Y016006D01*
X034900Y015929D01*
X034977Y016006D01*
X035053Y016006D01*
X035130Y015929D01*
X035130Y015776D01*
X035053Y015699D01*
X035053Y015546D02*
X035130Y015469D01*
X035130Y015316D01*
X035053Y015239D01*
X034900Y015853D02*
X034900Y015929D01*
X034900Y016160D02*
X034823Y016313D01*
X034823Y016390D01*
X034900Y016467D01*
X035053Y016467D01*
X035130Y016390D01*
X035130Y016236D01*
X035053Y016160D01*
X034900Y016160D02*
X034670Y016160D01*
X034670Y016467D01*
X039920Y017072D02*
X039997Y016995D01*
X040150Y016995D01*
X040227Y017072D01*
X040380Y017072D02*
X040457Y016995D01*
X040611Y016995D01*
X040687Y017072D01*
X040687Y017148D01*
X040611Y017225D01*
X040534Y017225D01*
X040611Y017225D02*
X040687Y017302D01*
X040687Y017379D01*
X040611Y017455D01*
X040457Y017455D01*
X040380Y017379D01*
X040227Y017379D02*
X040150Y017455D01*
X039997Y017455D01*
X039920Y017379D01*
X039920Y017072D01*
X040841Y017225D02*
X041071Y017455D01*
X041071Y016995D01*
X041148Y017225D02*
X040841Y017225D01*
X040784Y021120D02*
X040784Y021580D01*
X040630Y021427D01*
X040477Y021504D02*
X040400Y021580D01*
X040247Y021580D01*
X040170Y021504D01*
X040170Y021197D01*
X040247Y021120D01*
X040400Y021120D01*
X040477Y021197D01*
X040630Y021120D02*
X040937Y021120D01*
X041091Y021197D02*
X041168Y021120D01*
X041321Y021120D01*
X041398Y021197D01*
X041398Y021504D01*
X041321Y021580D01*
X041168Y021580D01*
X041091Y021504D01*
X041091Y021427D01*
X041168Y021350D01*
X041398Y021350D01*
X035130Y021941D02*
X035130Y022094D01*
X035053Y022171D01*
X035130Y022324D02*
X034823Y022631D01*
X034746Y022631D01*
X034670Y022554D01*
X034670Y022401D01*
X034746Y022324D01*
X034746Y022171D02*
X034670Y022094D01*
X034670Y021941D01*
X034746Y021864D01*
X035053Y021864D01*
X035130Y021941D01*
X035130Y022324D02*
X035130Y022631D01*
X035053Y022785D02*
X034746Y023092D01*
X035053Y023092D01*
X035130Y023015D01*
X035130Y022861D01*
X035053Y022785D01*
X034746Y022785D01*
X034670Y022861D01*
X034670Y023015D01*
X034746Y023092D01*
X034746Y024739D02*
X035053Y024739D01*
X035130Y024816D01*
X035130Y024969D01*
X035053Y025046D01*
X035130Y025199D02*
X034823Y025506D01*
X034746Y025506D01*
X034670Y025429D01*
X034670Y025276D01*
X034746Y025199D01*
X034746Y025046D02*
X034670Y024969D01*
X034670Y024816D01*
X034746Y024739D01*
X035130Y025199D02*
X035130Y025506D01*
X035053Y025660D02*
X035130Y025736D01*
X035130Y025890D01*
X035053Y025967D01*
X034977Y025967D01*
X034900Y025890D01*
X034900Y025813D01*
X034900Y025890D02*
X034823Y025967D01*
X034746Y025967D01*
X034670Y025890D01*
X034670Y025736D01*
X034746Y025660D01*
X039920Y026572D02*
X039997Y026495D01*
X040150Y026495D01*
X040227Y026572D01*
X040380Y026495D02*
X040687Y026802D01*
X040687Y026879D01*
X040611Y026955D01*
X040457Y026955D01*
X040380Y026879D01*
X040227Y026879D02*
X040150Y026955D01*
X039997Y026955D01*
X039920Y026879D01*
X039920Y026572D01*
X040380Y026495D02*
X040687Y026495D01*
X040841Y026495D02*
X041148Y026802D01*
X041148Y026879D01*
X041071Y026955D01*
X040918Y026955D01*
X040841Y026879D01*
X040841Y026495D02*
X041148Y026495D01*
X040630Y030620D02*
X040630Y030697D01*
X040937Y031004D01*
X040937Y031080D01*
X040630Y031080D01*
X040477Y031004D02*
X040400Y031080D01*
X040247Y031080D01*
X040170Y031004D01*
X040170Y030697D01*
X040247Y030620D01*
X040400Y030620D01*
X040477Y030697D01*
X035130Y031901D02*
X035130Y032054D01*
X035053Y032131D01*
X035053Y032285D02*
X034977Y032285D01*
X034900Y032361D01*
X034900Y032515D01*
X034977Y032592D01*
X035053Y032592D01*
X035130Y032515D01*
X035130Y032361D01*
X035053Y032285D01*
X034900Y032361D02*
X034823Y032285D01*
X034746Y032285D01*
X034670Y032361D01*
X034670Y032515D01*
X034746Y032592D01*
X034823Y032592D01*
X034900Y032515D01*
X034746Y032131D02*
X034670Y032054D01*
X034670Y031901D01*
X034746Y031824D01*
X035053Y031824D01*
X035130Y031901D01*
X035053Y034239D02*
X034746Y034239D01*
X034670Y034316D01*
X034670Y034469D01*
X034746Y034546D01*
X034823Y034699D02*
X034670Y034853D01*
X035130Y034853D01*
X035130Y035006D02*
X035130Y034699D01*
X035053Y034546D02*
X035130Y034469D01*
X035130Y034316D01*
X035053Y034239D01*
X035130Y035160D02*
X035130Y035467D01*
X035130Y035313D02*
X034670Y035313D01*
X034823Y035160D01*
X039920Y036072D02*
X039997Y035995D01*
X040150Y035995D01*
X040227Y036072D01*
X040380Y035995D02*
X040687Y035995D01*
X040534Y035995D02*
X040534Y036455D01*
X040380Y036302D01*
X040227Y036379D02*
X040150Y036455D01*
X039997Y036455D01*
X039920Y036379D01*
X039920Y036072D01*
X040841Y036072D02*
X040918Y035995D01*
X041071Y035995D01*
X041148Y036072D01*
X041148Y036379D01*
X040841Y036072D01*
X040841Y036379D01*
X040918Y036455D01*
X041071Y036455D01*
X041148Y036379D01*
X058931Y036112D02*
X058931Y035882D01*
X059007Y035805D01*
X059161Y035805D01*
X059237Y035882D01*
X059237Y036112D01*
X059777Y035805D02*
X060237Y035805D01*
X060237Y036035D01*
X060161Y036112D01*
X060007Y036112D01*
X059931Y036035D01*
X059931Y035805D01*
X060931Y035882D02*
X060931Y036035D01*
X061007Y036112D01*
X061237Y036112D01*
X061237Y035882D01*
X061161Y035805D01*
X061084Y035882D01*
X061084Y036112D01*
X061527Y035459D02*
X061987Y035459D01*
X061987Y035612D02*
X061987Y035305D01*
X061681Y035305D02*
X061527Y035459D01*
X053980Y022467D02*
X053980Y022160D01*
X053980Y022313D02*
X053520Y022313D01*
X053673Y022160D01*
X053816Y021980D02*
X053739Y021904D01*
X053739Y021597D01*
X053816Y021520D01*
X053969Y021520D01*
X054046Y021597D01*
X054199Y021750D02*
X054506Y021750D01*
X054660Y021827D02*
X054736Y021750D01*
X054967Y021750D01*
X054967Y021597D02*
X054967Y021904D01*
X054890Y021980D01*
X054736Y021980D01*
X054660Y021904D01*
X054660Y021827D01*
X054660Y021597D02*
X054736Y021520D01*
X054890Y021520D01*
X054967Y021597D01*
X054429Y021520D02*
X054429Y021980D01*
X054199Y021750D01*
X054046Y021904D02*
X053969Y021980D01*
X053816Y021980D01*
X055739Y020704D02*
X055739Y020397D01*
X055816Y020320D01*
X055969Y020320D01*
X056046Y020397D01*
X056199Y020397D02*
X056276Y020320D01*
X056429Y020320D01*
X056506Y020397D01*
X056506Y020550D01*
X056429Y020627D01*
X056353Y020627D01*
X056199Y020550D01*
X056199Y020780D01*
X056506Y020780D01*
X056660Y020704D02*
X056736Y020780D01*
X056890Y020780D01*
X056967Y020704D01*
X056660Y020397D01*
X056736Y020320D01*
X056890Y020320D01*
X056967Y020397D01*
X056967Y020704D01*
X056660Y020704D02*
X056660Y020397D01*
X056046Y020704D02*
X055969Y020780D01*
X055816Y020780D01*
X055739Y020704D01*
X019630Y020947D02*
X019630Y021100D01*
X019553Y021177D01*
X019630Y021330D02*
X019630Y021637D01*
X019630Y021484D02*
X019170Y021484D01*
X019323Y021330D01*
X019246Y021177D02*
X019170Y021100D01*
X019170Y020947D01*
X019246Y020870D01*
X019553Y020870D01*
X019630Y020947D01*
X019553Y021791D02*
X019630Y021868D01*
X019630Y022021D01*
X019553Y022098D01*
X019477Y022098D01*
X019400Y022021D01*
X019400Y021944D01*
X019400Y022021D02*
X019323Y022098D01*
X019246Y022098D01*
X019170Y022021D01*
X019170Y021868D01*
X019246Y021791D01*
X019246Y023995D02*
X019553Y023995D01*
X019630Y024072D01*
X019630Y024225D01*
X019553Y024302D01*
X019630Y024455D02*
X019630Y024762D01*
X019630Y024609D02*
X019170Y024609D01*
X019323Y024455D01*
X019246Y024302D02*
X019170Y024225D01*
X019170Y024072D01*
X019246Y023995D01*
X019400Y024916D02*
X019400Y025146D01*
X019477Y025223D01*
X019553Y025223D01*
X019630Y025146D01*
X019630Y024993D01*
X019553Y024916D01*
X019400Y024916D01*
X019246Y025069D01*
X019170Y025223D01*
X014130Y025291D02*
X014053Y025291D01*
X013746Y025598D01*
X013670Y025598D01*
X013670Y025291D01*
X013670Y024984D02*
X014130Y024984D01*
X014130Y025137D02*
X014130Y024830D01*
X014053Y024677D02*
X014130Y024600D01*
X014130Y024447D01*
X014053Y024370D01*
X013746Y024370D01*
X013670Y024447D01*
X013670Y024600D01*
X013746Y024677D01*
X013823Y024830D02*
X013670Y024984D01*
X013900Y022598D02*
X013900Y022291D01*
X013670Y022521D01*
X014130Y022521D01*
X014130Y022137D02*
X014130Y021830D01*
X014130Y021984D02*
X013670Y021984D01*
X013823Y021830D01*
X013746Y021677D02*
X013670Y021600D01*
X013670Y021447D01*
X013746Y021370D01*
X014053Y021370D01*
X014130Y021447D01*
X014130Y021600D01*
X014053Y021677D01*
X012791Y021699D02*
X012550Y021939D01*
X012490Y021939D01*
X012430Y021879D01*
X012430Y021759D01*
X012490Y021699D01*
X012430Y021571D02*
X012791Y021331D01*
X012791Y021571D02*
X012430Y021331D01*
X012791Y021699D02*
X012791Y021939D01*
X013746Y016098D02*
X013670Y016021D01*
X013670Y015868D01*
X013746Y015791D01*
X013823Y015791D01*
X013900Y015868D01*
X013900Y016098D01*
X014053Y016098D02*
X013746Y016098D01*
X014053Y016098D02*
X014130Y016021D01*
X014130Y015868D01*
X014053Y015791D01*
X014130Y015637D02*
X014130Y015330D01*
X013823Y015637D01*
X013746Y015637D01*
X013670Y015561D01*
X013670Y015407D01*
X013746Y015330D01*
X013746Y015177D02*
X013670Y015100D01*
X013670Y014947D01*
X013746Y014870D01*
X014053Y014870D01*
X014130Y014947D01*
X014130Y015100D01*
X014053Y015177D01*
X014053Y013098D02*
X013977Y013098D01*
X013900Y013021D01*
X013900Y012791D01*
X014053Y012791D01*
X014130Y012868D01*
X014130Y013021D01*
X014053Y013098D01*
X013746Y012944D02*
X013900Y012791D01*
X013823Y012637D02*
X013746Y012637D01*
X013670Y012561D01*
X013670Y012407D01*
X013746Y012330D01*
X013746Y012177D02*
X013670Y012100D01*
X013670Y011947D01*
X013746Y011870D01*
X014053Y011870D01*
X014130Y011947D01*
X014130Y012100D01*
X014053Y012177D01*
X014130Y012330D02*
X013823Y012637D01*
X014130Y012637D02*
X014130Y012330D01*
X013746Y012944D02*
X013670Y013098D01*
X012791Y012379D02*
X012791Y012259D01*
X012731Y012199D01*
X012791Y012071D02*
X012430Y011831D01*
X012430Y012071D02*
X012791Y011831D01*
X012490Y012199D02*
X012430Y012259D01*
X012430Y012379D01*
X012490Y012439D01*
X012550Y012439D01*
X012610Y012379D01*
X012670Y012439D01*
X012731Y012439D01*
X012791Y012379D01*
X012610Y012379D02*
X012610Y012319D01*
X019170Y012291D02*
X019400Y012291D01*
X019323Y012444D01*
X019323Y012521D01*
X019400Y012598D01*
X019553Y012598D01*
X019630Y012521D01*
X019630Y012368D01*
X019553Y012291D01*
X019630Y012137D02*
X019630Y011830D01*
X019323Y012137D01*
X019246Y012137D01*
X019170Y012061D01*
X019170Y011907D01*
X019246Y011830D01*
X019246Y011677D02*
X019170Y011600D01*
X019170Y011447D01*
X019246Y011370D01*
X019553Y011370D01*
X019630Y011447D01*
X019630Y011600D01*
X019553Y011677D01*
X019170Y012291D02*
X019170Y012598D01*
X019246Y014495D02*
X019553Y014495D01*
X019630Y014572D01*
X019630Y014725D01*
X019553Y014802D01*
X019630Y014955D02*
X019323Y015262D01*
X019246Y015262D01*
X019170Y015186D01*
X019170Y015032D01*
X019246Y014955D01*
X019246Y014802D02*
X019170Y014725D01*
X019170Y014572D01*
X019246Y014495D01*
X019630Y014955D02*
X019630Y015262D01*
X019553Y015416D02*
X019630Y015493D01*
X019630Y015646D01*
X019553Y015723D01*
X019477Y015723D01*
X019400Y015646D01*
X019400Y015493D01*
X019323Y015416D01*
X019246Y015416D01*
X019170Y015493D01*
X019170Y015646D01*
X019246Y015723D01*
X019323Y015723D01*
X019400Y015646D01*
X019400Y015493D02*
X019477Y015416D01*
X019553Y015416D01*
X014130Y006598D02*
X014130Y006291D01*
X014130Y006444D02*
X013670Y006444D01*
X013823Y006291D01*
X013900Y006137D02*
X013900Y005830D01*
X013670Y006061D01*
X014130Y006061D01*
X014053Y005677D02*
X014130Y005600D01*
X014130Y005447D01*
X014053Y005370D01*
X013746Y005370D01*
X013670Y005447D01*
X013670Y005600D01*
X013746Y005677D01*
X013746Y003598D02*
X013823Y003598D01*
X013900Y003521D01*
X013900Y003368D01*
X013823Y003291D01*
X013746Y003291D01*
X013670Y003368D01*
X013670Y003521D01*
X013746Y003598D01*
X013900Y003521D02*
X013977Y003598D01*
X014053Y003598D01*
X014130Y003521D01*
X014130Y003368D01*
X014053Y003291D01*
X013977Y003291D01*
X013900Y003368D01*
X013977Y003137D02*
X013900Y003061D01*
X013900Y002984D01*
X013900Y003061D02*
X013823Y003137D01*
X013746Y003137D01*
X013670Y003061D01*
X013670Y002907D01*
X013746Y002830D01*
X013746Y002677D02*
X013670Y002600D01*
X013670Y002447D01*
X013746Y002370D01*
X014053Y002370D01*
X014130Y002447D01*
X014130Y002600D01*
X014053Y002677D01*
X014053Y002830D02*
X014130Y002907D01*
X014130Y003061D01*
X014053Y003137D01*
X013977Y003137D01*
X012791Y002879D02*
X012430Y002879D01*
X012610Y002699D01*
X012610Y002939D01*
X012430Y002571D02*
X012791Y002331D01*
X012791Y002571D02*
X012430Y002331D01*
X019170Y002407D02*
X019246Y002330D01*
X019170Y002407D02*
X019170Y002561D01*
X019246Y002637D01*
X019323Y002637D01*
X019400Y002561D01*
X019477Y002637D01*
X019553Y002637D01*
X019630Y002561D01*
X019630Y002407D01*
X019553Y002330D01*
X019553Y002177D02*
X019630Y002100D01*
X019630Y001947D01*
X019553Y001870D01*
X019246Y001870D01*
X019170Y001947D01*
X019170Y002100D01*
X019246Y002177D01*
X019400Y002484D02*
X019400Y002561D01*
X019553Y002791D02*
X019630Y002791D01*
X019553Y002791D02*
X019246Y003098D01*
X019170Y003098D01*
X019170Y002791D01*
X019246Y004995D02*
X019553Y004995D01*
X019630Y005072D01*
X019630Y005225D01*
X019553Y005302D01*
X019400Y005455D02*
X019400Y005762D01*
X019553Y005916D02*
X019246Y006223D01*
X019553Y006223D01*
X019630Y006146D01*
X019630Y005993D01*
X019553Y005916D01*
X019246Y005916D01*
X019170Y005993D01*
X019170Y006146D01*
X019246Y006223D01*
X019170Y005686D02*
X019400Y005455D01*
X019246Y005302D02*
X019170Y005225D01*
X019170Y005072D01*
X019246Y004995D01*
X019170Y005686D02*
X019630Y005686D01*
X019553Y030370D02*
X019630Y030447D01*
X019630Y030600D01*
X019553Y030677D01*
X019630Y030830D02*
X019630Y031137D01*
X019630Y030984D02*
X019170Y030984D01*
X019323Y030830D01*
X019246Y030677D02*
X019170Y030600D01*
X019170Y030447D01*
X019246Y030370D01*
X019553Y030370D01*
X019553Y033495D02*
X019630Y033572D01*
X019630Y033725D01*
X019553Y033802D01*
X019400Y033955D02*
X019400Y034262D01*
X019630Y034186D02*
X019170Y034186D01*
X019400Y033955D01*
X019246Y033802D02*
X019170Y033725D01*
X019170Y033572D01*
X019246Y033495D01*
X019553Y033495D01*
X014130Y033947D02*
X014130Y034100D01*
X014053Y034177D01*
X014053Y034330D02*
X014130Y034407D01*
X014130Y034561D01*
X014053Y034637D01*
X013900Y034637D01*
X013823Y034561D01*
X013823Y034484D01*
X013900Y034330D01*
X013670Y034330D01*
X013670Y034637D01*
X013746Y034177D02*
X013670Y034100D01*
X013670Y033947D01*
X013746Y033870D01*
X014053Y033870D01*
X014130Y033947D01*
X014053Y031637D02*
X014130Y031561D01*
X014130Y031407D01*
X014053Y031330D01*
X014053Y031177D02*
X014130Y031100D01*
X014130Y030947D01*
X014053Y030870D01*
X013746Y030870D01*
X013670Y030947D01*
X013670Y031100D01*
X013746Y031177D01*
X013746Y031330D02*
X013670Y031407D01*
X013670Y031561D01*
X013746Y031637D01*
X013823Y031637D01*
X013900Y031561D01*
X013977Y031637D01*
X014053Y031637D01*
X013900Y031561D02*
X013900Y031484D01*
X012791Y031439D02*
X012791Y031199D01*
X012791Y031319D02*
X012430Y031319D01*
X012550Y031199D01*
X012430Y031071D02*
X012791Y030831D01*
X012791Y031071D02*
X012430Y030831D01*
D17*
X015775Y031000D02*
X015775Y032700D01*
X015777Y032717D01*
X015781Y032734D01*
X015788Y032750D01*
X015798Y032764D01*
X015811Y032777D01*
X015825Y032787D01*
X015841Y032794D01*
X015858Y032798D01*
X015875Y032800D01*
X016675Y032800D01*
X016692Y032798D01*
X016709Y032794D01*
X016725Y032787D01*
X016739Y032777D01*
X016752Y032764D01*
X016762Y032750D01*
X016769Y032734D01*
X016773Y032717D01*
X016775Y032700D01*
X016775Y031000D01*
X016773Y030983D01*
X016769Y030966D01*
X016762Y030950D01*
X016752Y030936D01*
X016739Y030923D01*
X016725Y030913D01*
X016709Y030906D01*
X016692Y030902D01*
X016675Y030900D01*
X015875Y030900D01*
X015858Y030902D01*
X015841Y030906D01*
X015825Y030913D01*
X015811Y030923D01*
X015798Y030936D01*
X015788Y030950D01*
X015781Y030966D01*
X015777Y030983D01*
X015775Y031000D01*
X016275Y031700D02*
X016275Y031750D01*
X016275Y031950D02*
X016275Y032000D01*
X017680Y031880D02*
X018120Y031880D01*
X018120Y030820D02*
X017680Y030820D01*
X017680Y033820D02*
X018120Y033820D01*
X016775Y034000D02*
X016775Y035700D01*
X016773Y035717D01*
X016769Y035734D01*
X016762Y035750D01*
X016752Y035764D01*
X016739Y035777D01*
X016725Y035787D01*
X016709Y035794D01*
X016692Y035798D01*
X016675Y035800D01*
X015875Y035800D01*
X015858Y035798D01*
X015841Y035794D01*
X015825Y035787D01*
X015811Y035777D01*
X015798Y035764D01*
X015788Y035750D01*
X015781Y035734D01*
X015777Y035717D01*
X015775Y035700D01*
X015775Y034000D01*
X015777Y033983D01*
X015781Y033966D01*
X015788Y033950D01*
X015798Y033936D01*
X015811Y033923D01*
X015825Y033913D01*
X015841Y033906D01*
X015858Y033902D01*
X015875Y033900D01*
X016675Y033900D01*
X016692Y033902D01*
X016709Y033906D01*
X016725Y033913D01*
X016739Y033923D01*
X016752Y033936D01*
X016762Y033950D01*
X016769Y033966D01*
X016773Y033983D01*
X016775Y034000D01*
X016275Y034700D02*
X016275Y034750D01*
X016275Y034950D02*
X016275Y035000D01*
X017680Y034880D02*
X018120Y034880D01*
X016675Y026300D02*
X015875Y026300D01*
X015858Y026298D01*
X015841Y026294D01*
X015825Y026287D01*
X015811Y026277D01*
X015798Y026264D01*
X015788Y026250D01*
X015781Y026234D01*
X015777Y026217D01*
X015775Y026200D01*
X015775Y024500D01*
X015777Y024483D01*
X015781Y024466D01*
X015788Y024450D01*
X015798Y024436D01*
X015811Y024423D01*
X015825Y024413D01*
X015841Y024406D01*
X015858Y024402D01*
X015875Y024400D01*
X016675Y024400D01*
X016692Y024402D01*
X016709Y024406D01*
X016725Y024413D01*
X016739Y024423D01*
X016752Y024436D01*
X016762Y024450D01*
X016769Y024466D01*
X016773Y024483D01*
X016775Y024500D01*
X016775Y026200D01*
X016773Y026217D01*
X016769Y026234D01*
X016762Y026250D01*
X016752Y026264D01*
X016739Y026277D01*
X016725Y026287D01*
X016709Y026294D01*
X016692Y026298D01*
X016675Y026300D01*
X016275Y025500D02*
X016275Y025450D01*
X016275Y025250D02*
X016275Y025200D01*
X017680Y025380D02*
X018120Y025380D01*
X018120Y024320D02*
X017680Y024320D01*
X016675Y023300D02*
X015875Y023300D01*
X015858Y023298D01*
X015841Y023294D01*
X015825Y023287D01*
X015811Y023277D01*
X015798Y023264D01*
X015788Y023250D01*
X015781Y023234D01*
X015777Y023217D01*
X015775Y023200D01*
X015775Y021500D01*
X015777Y021483D01*
X015781Y021466D01*
X015788Y021450D01*
X015798Y021436D01*
X015811Y021423D01*
X015825Y021413D01*
X015841Y021406D01*
X015858Y021402D01*
X015875Y021400D01*
X016675Y021400D01*
X016692Y021402D01*
X016709Y021406D01*
X016725Y021413D01*
X016739Y021423D01*
X016752Y021436D01*
X016762Y021450D01*
X016769Y021466D01*
X016773Y021483D01*
X016775Y021500D01*
X016775Y023200D01*
X016773Y023217D01*
X016769Y023234D01*
X016762Y023250D01*
X016752Y023264D01*
X016739Y023277D01*
X016725Y023287D01*
X016709Y023294D01*
X016692Y023298D01*
X016675Y023300D01*
X016275Y022500D02*
X016275Y022450D01*
X016275Y022250D02*
X016275Y022200D01*
X017680Y022380D02*
X018120Y022380D01*
X018120Y021320D02*
X017680Y021320D01*
X016675Y016800D02*
X015875Y016800D01*
X015858Y016798D01*
X015841Y016794D01*
X015825Y016787D01*
X015811Y016777D01*
X015798Y016764D01*
X015788Y016750D01*
X015781Y016734D01*
X015777Y016717D01*
X015775Y016700D01*
X015775Y015000D01*
X015777Y014983D01*
X015781Y014966D01*
X015788Y014950D01*
X015798Y014936D01*
X015811Y014923D01*
X015825Y014913D01*
X015841Y014906D01*
X015858Y014902D01*
X015875Y014900D01*
X016675Y014900D01*
X016692Y014902D01*
X016709Y014906D01*
X016725Y014913D01*
X016739Y014923D01*
X016752Y014936D01*
X016762Y014950D01*
X016769Y014966D01*
X016773Y014983D01*
X016775Y015000D01*
X016775Y016700D01*
X016773Y016717D01*
X016769Y016734D01*
X016762Y016750D01*
X016752Y016764D01*
X016739Y016777D01*
X016725Y016787D01*
X016709Y016794D01*
X016692Y016798D01*
X016675Y016800D01*
X016275Y016000D02*
X016275Y015950D01*
X016275Y015750D02*
X016275Y015700D01*
X017680Y015880D02*
X018120Y015880D01*
X018120Y014820D02*
X017680Y014820D01*
X016675Y013800D02*
X015875Y013800D01*
X015858Y013798D01*
X015841Y013794D01*
X015825Y013787D01*
X015811Y013777D01*
X015798Y013764D01*
X015788Y013750D01*
X015781Y013734D01*
X015777Y013717D01*
X015775Y013700D01*
X015775Y012000D01*
X015777Y011983D01*
X015781Y011966D01*
X015788Y011950D01*
X015798Y011936D01*
X015811Y011923D01*
X015825Y011913D01*
X015841Y011906D01*
X015858Y011902D01*
X015875Y011900D01*
X016675Y011900D01*
X016692Y011902D01*
X016709Y011906D01*
X016725Y011913D01*
X016739Y011923D01*
X016752Y011936D01*
X016762Y011950D01*
X016769Y011966D01*
X016773Y011983D01*
X016775Y012000D01*
X016775Y013700D01*
X016773Y013717D01*
X016769Y013734D01*
X016762Y013750D01*
X016752Y013764D01*
X016739Y013777D01*
X016725Y013787D01*
X016709Y013794D01*
X016692Y013798D01*
X016675Y013800D01*
X016275Y013000D02*
X016275Y012950D01*
X016275Y012750D02*
X016275Y012700D01*
X017680Y012880D02*
X018120Y012880D01*
X018120Y011820D02*
X017680Y011820D01*
X016675Y007300D02*
X015875Y007300D01*
X015858Y007298D01*
X015841Y007294D01*
X015825Y007287D01*
X015811Y007277D01*
X015798Y007264D01*
X015788Y007250D01*
X015781Y007234D01*
X015777Y007217D01*
X015775Y007200D01*
X015775Y005500D01*
X015777Y005483D01*
X015781Y005466D01*
X015788Y005450D01*
X015798Y005436D01*
X015811Y005423D01*
X015825Y005413D01*
X015841Y005406D01*
X015858Y005402D01*
X015875Y005400D01*
X016675Y005400D01*
X016692Y005402D01*
X016709Y005406D01*
X016725Y005413D01*
X016739Y005423D01*
X016752Y005436D01*
X016762Y005450D01*
X016769Y005466D01*
X016773Y005483D01*
X016775Y005500D01*
X016775Y007200D01*
X016773Y007217D01*
X016769Y007234D01*
X016762Y007250D01*
X016752Y007264D01*
X016739Y007277D01*
X016725Y007287D01*
X016709Y007294D01*
X016692Y007298D01*
X016675Y007300D01*
X016275Y006500D02*
X016275Y006450D01*
X016275Y006250D02*
X016275Y006200D01*
X017680Y006380D02*
X018120Y006380D01*
X018120Y005320D02*
X017680Y005320D01*
X016675Y004300D02*
X015875Y004300D01*
X015858Y004298D01*
X015841Y004294D01*
X015825Y004287D01*
X015811Y004277D01*
X015798Y004264D01*
X015788Y004250D01*
X015781Y004234D01*
X015777Y004217D01*
X015775Y004200D01*
X015775Y002500D01*
X015777Y002483D01*
X015781Y002466D01*
X015788Y002450D01*
X015798Y002436D01*
X015811Y002423D01*
X015825Y002413D01*
X015841Y002406D01*
X015858Y002402D01*
X015875Y002400D01*
X016675Y002400D01*
X016692Y002402D01*
X016709Y002406D01*
X016725Y002413D01*
X016739Y002423D01*
X016752Y002436D01*
X016762Y002450D01*
X016769Y002466D01*
X016773Y002483D01*
X016775Y002500D01*
X016775Y004200D01*
X016773Y004217D01*
X016769Y004234D01*
X016762Y004250D01*
X016752Y004264D01*
X016739Y004277D01*
X016725Y004287D01*
X016709Y004294D01*
X016692Y004298D01*
X016675Y004300D01*
X016275Y003500D02*
X016275Y003450D01*
X016275Y003250D02*
X016275Y003200D01*
X017680Y003380D02*
X018120Y003380D01*
X018120Y002320D02*
X017680Y002320D01*
X036775Y002500D02*
X036775Y004200D01*
X036777Y004217D01*
X036781Y004234D01*
X036788Y004250D01*
X036798Y004264D01*
X036811Y004277D01*
X036825Y004287D01*
X036841Y004294D01*
X036858Y004298D01*
X036875Y004300D01*
X037675Y004300D01*
X037692Y004298D01*
X037709Y004294D01*
X037725Y004287D01*
X037739Y004277D01*
X037752Y004264D01*
X037762Y004250D01*
X037769Y004234D01*
X037773Y004217D01*
X037775Y004200D01*
X037775Y002500D01*
X037773Y002483D01*
X037769Y002466D01*
X037762Y002450D01*
X037752Y002436D01*
X037739Y002423D01*
X037725Y002413D01*
X037709Y002406D01*
X037692Y002402D01*
X037675Y002400D01*
X036875Y002400D01*
X036858Y002402D01*
X036841Y002406D01*
X036825Y002413D01*
X036811Y002423D01*
X036798Y002436D01*
X036788Y002450D01*
X036781Y002466D01*
X036777Y002483D01*
X036775Y002500D01*
X037275Y003200D02*
X037275Y003250D01*
X037275Y003450D02*
X037275Y003500D01*
X038680Y003320D02*
X039120Y003320D01*
X039120Y004380D02*
X038680Y004380D01*
X037675Y005400D02*
X036875Y005400D01*
X036858Y005402D01*
X036841Y005406D01*
X036825Y005413D01*
X036811Y005423D01*
X036798Y005436D01*
X036788Y005450D01*
X036781Y005466D01*
X036777Y005483D01*
X036775Y005500D01*
X036775Y007200D01*
X036777Y007217D01*
X036781Y007234D01*
X036788Y007250D01*
X036798Y007264D01*
X036811Y007277D01*
X036825Y007287D01*
X036841Y007294D01*
X036858Y007298D01*
X036875Y007300D01*
X037675Y007300D01*
X037692Y007298D01*
X037709Y007294D01*
X037725Y007287D01*
X037739Y007277D01*
X037752Y007264D01*
X037762Y007250D01*
X037769Y007234D01*
X037773Y007217D01*
X037775Y007200D01*
X037775Y005500D01*
X037773Y005483D01*
X037769Y005466D01*
X037762Y005450D01*
X037752Y005436D01*
X037739Y005423D01*
X037725Y005413D01*
X037709Y005406D01*
X037692Y005402D01*
X037675Y005400D01*
X037275Y006200D02*
X037275Y006250D01*
X037275Y006450D02*
X037275Y006500D01*
X038680Y006320D02*
X039120Y006320D01*
X039120Y007380D02*
X038680Y007380D01*
X037675Y011900D02*
X036875Y011900D01*
X036858Y011902D01*
X036841Y011906D01*
X036825Y011913D01*
X036811Y011923D01*
X036798Y011936D01*
X036788Y011950D01*
X036781Y011966D01*
X036777Y011983D01*
X036775Y012000D01*
X036775Y013700D01*
X036777Y013717D01*
X036781Y013734D01*
X036788Y013750D01*
X036798Y013764D01*
X036811Y013777D01*
X036825Y013787D01*
X036841Y013794D01*
X036858Y013798D01*
X036875Y013800D01*
X037675Y013800D01*
X037692Y013798D01*
X037709Y013794D01*
X037725Y013787D01*
X037739Y013777D01*
X037752Y013764D01*
X037762Y013750D01*
X037769Y013734D01*
X037773Y013717D01*
X037775Y013700D01*
X037775Y012000D01*
X037773Y011983D01*
X037769Y011966D01*
X037762Y011950D01*
X037752Y011936D01*
X037739Y011923D01*
X037725Y011913D01*
X037709Y011906D01*
X037692Y011902D01*
X037675Y011900D01*
X037275Y012700D02*
X037275Y012750D01*
X037275Y012950D02*
X037275Y013000D01*
X038680Y012820D02*
X039120Y012820D01*
X039120Y013880D02*
X038680Y013880D01*
X037675Y014900D02*
X036875Y014900D01*
X036858Y014902D01*
X036841Y014906D01*
X036825Y014913D01*
X036811Y014923D01*
X036798Y014936D01*
X036788Y014950D01*
X036781Y014966D01*
X036777Y014983D01*
X036775Y015000D01*
X036775Y016700D01*
X036777Y016717D01*
X036781Y016734D01*
X036788Y016750D01*
X036798Y016764D01*
X036811Y016777D01*
X036825Y016787D01*
X036841Y016794D01*
X036858Y016798D01*
X036875Y016800D01*
X037675Y016800D01*
X037692Y016798D01*
X037709Y016794D01*
X037725Y016787D01*
X037739Y016777D01*
X037752Y016764D01*
X037762Y016750D01*
X037769Y016734D01*
X037773Y016717D01*
X037775Y016700D01*
X037775Y015000D01*
X037773Y014983D01*
X037769Y014966D01*
X037762Y014950D01*
X037752Y014936D01*
X037739Y014923D01*
X037725Y014913D01*
X037709Y014906D01*
X037692Y014902D01*
X037675Y014900D01*
X037275Y015700D02*
X037275Y015750D01*
X037275Y015950D02*
X037275Y016000D01*
X038680Y015820D02*
X039120Y015820D01*
X039120Y016880D02*
X038680Y016880D01*
X037675Y021400D02*
X036875Y021400D01*
X036858Y021402D01*
X036841Y021406D01*
X036825Y021413D01*
X036811Y021423D01*
X036798Y021436D01*
X036788Y021450D01*
X036781Y021466D01*
X036777Y021483D01*
X036775Y021500D01*
X036775Y023200D01*
X036777Y023217D01*
X036781Y023234D01*
X036788Y023250D01*
X036798Y023264D01*
X036811Y023277D01*
X036825Y023287D01*
X036841Y023294D01*
X036858Y023298D01*
X036875Y023300D01*
X037675Y023300D01*
X037692Y023298D01*
X037709Y023294D01*
X037725Y023287D01*
X037739Y023277D01*
X037752Y023264D01*
X037762Y023250D01*
X037769Y023234D01*
X037773Y023217D01*
X037775Y023200D01*
X037775Y021500D01*
X037773Y021483D01*
X037769Y021466D01*
X037762Y021450D01*
X037752Y021436D01*
X037739Y021423D01*
X037725Y021413D01*
X037709Y021406D01*
X037692Y021402D01*
X037675Y021400D01*
X037275Y022200D02*
X037275Y022250D01*
X037275Y022450D02*
X037275Y022500D01*
X038680Y022320D02*
X039120Y022320D01*
X039120Y023380D02*
X038680Y023380D01*
X037675Y024400D02*
X036875Y024400D01*
X036858Y024402D01*
X036841Y024406D01*
X036825Y024413D01*
X036811Y024423D01*
X036798Y024436D01*
X036788Y024450D01*
X036781Y024466D01*
X036777Y024483D01*
X036775Y024500D01*
X036775Y026200D01*
X036777Y026217D01*
X036781Y026234D01*
X036788Y026250D01*
X036798Y026264D01*
X036811Y026277D01*
X036825Y026287D01*
X036841Y026294D01*
X036858Y026298D01*
X036875Y026300D01*
X037675Y026300D01*
X037692Y026298D01*
X037709Y026294D01*
X037725Y026287D01*
X037739Y026277D01*
X037752Y026264D01*
X037762Y026250D01*
X037769Y026234D01*
X037773Y026217D01*
X037775Y026200D01*
X037775Y024500D01*
X037773Y024483D01*
X037769Y024466D01*
X037762Y024450D01*
X037752Y024436D01*
X037739Y024423D01*
X037725Y024413D01*
X037709Y024406D01*
X037692Y024402D01*
X037675Y024400D01*
X037275Y025200D02*
X037275Y025250D01*
X037275Y025450D02*
X037275Y025500D01*
X038680Y025320D02*
X039120Y025320D01*
X039120Y026380D02*
X038680Y026380D01*
X037675Y030900D02*
X036875Y030900D01*
X036858Y030902D01*
X036841Y030906D01*
X036825Y030913D01*
X036811Y030923D01*
X036798Y030936D01*
X036788Y030950D01*
X036781Y030966D01*
X036777Y030983D01*
X036775Y031000D01*
X036775Y032700D01*
X036777Y032717D01*
X036781Y032734D01*
X036788Y032750D01*
X036798Y032764D01*
X036811Y032777D01*
X036825Y032787D01*
X036841Y032794D01*
X036858Y032798D01*
X036875Y032800D01*
X037675Y032800D01*
X037692Y032798D01*
X037709Y032794D01*
X037725Y032787D01*
X037739Y032777D01*
X037752Y032764D01*
X037762Y032750D01*
X037769Y032734D01*
X037773Y032717D01*
X037775Y032700D01*
X037775Y031000D01*
X037773Y030983D01*
X037769Y030966D01*
X037762Y030950D01*
X037752Y030936D01*
X037739Y030923D01*
X037725Y030913D01*
X037709Y030906D01*
X037692Y030902D01*
X037675Y030900D01*
X037275Y031700D02*
X037275Y031750D01*
X037275Y031950D02*
X037275Y032000D01*
X038680Y031820D02*
X039120Y031820D01*
X039120Y032880D02*
X038680Y032880D01*
X037675Y033900D02*
X036875Y033900D01*
X036858Y033902D01*
X036841Y033906D01*
X036825Y033913D01*
X036811Y033923D01*
X036798Y033936D01*
X036788Y033950D01*
X036781Y033966D01*
X036777Y033983D01*
X036775Y034000D01*
X036775Y035700D01*
X036777Y035717D01*
X036781Y035734D01*
X036788Y035750D01*
X036798Y035764D01*
X036811Y035777D01*
X036825Y035787D01*
X036841Y035794D01*
X036858Y035798D01*
X036875Y035800D01*
X037675Y035800D01*
X037692Y035798D01*
X037709Y035794D01*
X037725Y035787D01*
X037739Y035777D01*
X037752Y035764D01*
X037762Y035750D01*
X037769Y035734D01*
X037773Y035717D01*
X037775Y035700D01*
X037775Y034000D01*
X037773Y033983D01*
X037769Y033966D01*
X037762Y033950D01*
X037752Y033936D01*
X037739Y033923D01*
X037725Y033913D01*
X037709Y033906D01*
X037692Y033902D01*
X037675Y033900D01*
X037275Y034700D02*
X037275Y034750D01*
X037275Y034950D02*
X037275Y035000D01*
X038680Y034820D02*
X039120Y034820D01*
X039120Y035880D02*
X038680Y035880D01*
D18*
X037575Y034950D02*
X037275Y034950D01*
X036975Y034950D01*
X036975Y034750D02*
X037275Y034750D01*
X037575Y034750D01*
X037575Y031950D02*
X037275Y031950D01*
X036975Y031950D01*
X036975Y031750D02*
X037275Y031750D01*
X037575Y031750D01*
X037575Y025450D02*
X037275Y025450D01*
X036975Y025450D01*
X036975Y025250D02*
X037275Y025250D01*
X037575Y025250D01*
X037575Y022450D02*
X037275Y022450D01*
X036975Y022450D01*
X036975Y022250D02*
X037275Y022250D01*
X037575Y022250D01*
X037575Y015950D02*
X037275Y015950D01*
X036975Y015950D01*
X036975Y015750D02*
X037275Y015750D01*
X037575Y015750D01*
X037575Y012950D02*
X037275Y012950D01*
X036975Y012950D01*
X036975Y012750D02*
X037275Y012750D01*
X037575Y012750D01*
X037575Y006450D02*
X037275Y006450D01*
X036975Y006450D01*
X036975Y006250D02*
X037275Y006250D01*
X037575Y006250D01*
X037575Y003450D02*
X037275Y003450D01*
X036975Y003450D01*
X036975Y003250D02*
X037275Y003250D01*
X037575Y003250D01*
X016575Y003250D02*
X016275Y003250D01*
X015975Y003250D01*
X015975Y003450D02*
X016275Y003450D01*
X016575Y003450D01*
X016575Y006250D02*
X016275Y006250D01*
X015975Y006250D01*
X015975Y006450D02*
X016275Y006450D01*
X016575Y006450D01*
X010900Y006600D02*
X010900Y006100D01*
X010650Y006100D01*
X010650Y005600D01*
X010900Y005600D01*
X010900Y005100D01*
X010650Y005100D01*
X010650Y004600D01*
X010900Y004600D01*
X010900Y004100D01*
X010650Y004100D01*
X010650Y003600D01*
X010900Y003600D01*
X010900Y003100D01*
X010650Y003100D01*
X010650Y002600D01*
X010900Y002600D01*
X010900Y002350D01*
X009650Y002350D01*
X009650Y002850D01*
X006500Y002850D01*
X006300Y002950D01*
X006300Y004870D01*
X006300Y004830D02*
X006300Y006750D01*
X006500Y006850D01*
X009650Y006850D01*
X009650Y007000D02*
X007200Y007000D01*
X007060Y006870D01*
X009650Y007000D02*
X009650Y007350D01*
X010900Y007350D01*
X010900Y007100D01*
X010650Y007100D01*
X010650Y006600D01*
X010900Y006600D01*
X007200Y002700D02*
X007060Y002830D01*
X007200Y002700D02*
X009650Y002700D01*
X009650Y011850D02*
X009650Y012350D01*
X006500Y012350D01*
X006300Y012450D01*
X006300Y014370D01*
X006300Y014330D02*
X006300Y016250D01*
X006500Y016350D01*
X009650Y016350D01*
X009650Y016500D02*
X007200Y016500D01*
X007060Y016370D01*
X009650Y016500D02*
X009650Y016850D01*
X010900Y016850D01*
X010900Y016600D01*
X010650Y016600D01*
X010650Y016100D01*
X010900Y016100D01*
X010900Y015600D01*
X010650Y015600D01*
X010650Y015100D01*
X010900Y015100D01*
X010900Y014600D01*
X010650Y014600D01*
X010650Y014100D01*
X010900Y014100D01*
X010900Y013600D01*
X010650Y013600D01*
X010650Y013100D01*
X010900Y013100D01*
X010900Y012600D01*
X010650Y012600D01*
X010650Y012100D01*
X010900Y012100D01*
X010900Y011850D01*
X009650Y011850D01*
X009650Y012200D02*
X007200Y012200D01*
X007060Y012330D01*
X015975Y012750D02*
X016275Y012750D01*
X016575Y012750D01*
X016575Y012950D02*
X016275Y012950D01*
X015975Y012950D01*
X015975Y015750D02*
X016275Y015750D01*
X016575Y015750D01*
X016575Y015950D02*
X016275Y015950D01*
X015975Y015950D01*
X010900Y021350D02*
X009650Y021350D01*
X009650Y021850D01*
X006500Y021850D01*
X006300Y021950D01*
X006300Y023870D01*
X006300Y023830D02*
X006300Y025750D01*
X006500Y025850D01*
X009650Y025850D01*
X009650Y026000D02*
X007200Y026000D01*
X007060Y025870D01*
X009650Y026000D02*
X009650Y026350D01*
X010900Y026350D01*
X010900Y026100D01*
X010650Y026100D01*
X010650Y025600D01*
X010900Y025600D01*
X010900Y025100D01*
X010650Y025100D01*
X010650Y024600D01*
X010900Y024600D01*
X010900Y024100D01*
X010650Y024100D01*
X010650Y023600D01*
X010900Y023600D01*
X010900Y023100D01*
X010650Y023100D01*
X010650Y022600D01*
X010900Y022600D01*
X010900Y022100D01*
X010650Y022100D01*
X010650Y021600D01*
X010900Y021600D01*
X010900Y021350D01*
X009650Y021700D02*
X007200Y021700D01*
X007060Y021830D01*
X015975Y022250D02*
X016275Y022250D01*
X016575Y022250D01*
X016575Y022450D02*
X016275Y022450D01*
X015975Y022450D01*
X015975Y025250D02*
X016275Y025250D01*
X016575Y025250D01*
X016575Y025450D02*
X016275Y025450D01*
X015975Y025450D01*
X010900Y030850D02*
X009650Y030850D01*
X009650Y031350D01*
X006500Y031350D01*
X006300Y031450D01*
X006300Y033370D01*
X006300Y033330D02*
X006300Y035250D01*
X006500Y035350D01*
X009650Y035350D01*
X009650Y035500D02*
X007200Y035500D01*
X007060Y035370D01*
X009650Y035500D02*
X009650Y035850D01*
X010900Y035850D01*
X010900Y035600D01*
X010650Y035600D01*
X010650Y035100D01*
X010900Y035100D01*
X010900Y034600D01*
X010650Y034600D01*
X010650Y034100D01*
X010900Y034100D01*
X010900Y033600D01*
X010650Y033600D01*
X010650Y033100D01*
X010900Y033100D01*
X010900Y032600D01*
X010650Y032600D01*
X010650Y032100D01*
X010900Y032100D01*
X010900Y031600D01*
X010650Y031600D01*
X010650Y031100D01*
X010900Y031100D01*
X010900Y030850D01*
X009650Y031200D02*
X007200Y031200D01*
X007060Y031330D01*
X015975Y031750D02*
X016275Y031750D01*
X016575Y031750D01*
X016575Y031950D02*
X016275Y031950D01*
X015975Y031950D01*
X015975Y034750D02*
X016275Y034750D01*
X016575Y034750D01*
X016575Y034950D02*
X016275Y034950D01*
X015975Y034950D01*
D19*
X015975Y035975D02*
X016125Y035975D01*
X016200Y036050D01*
X016360Y036050D02*
X016435Y035975D01*
X016586Y035975D01*
X016661Y036050D01*
X016661Y036125D01*
X016586Y036200D01*
X016360Y036200D01*
X016360Y036050D01*
X016360Y036200D02*
X016511Y036350D01*
X016661Y036425D01*
X016200Y036350D02*
X016125Y036425D01*
X015975Y036425D01*
X015900Y036350D01*
X015900Y036050D01*
X015975Y035975D01*
X017305Y035655D02*
X017305Y035205D01*
X017605Y035205D01*
X017765Y035205D02*
X018066Y035505D01*
X018066Y035580D01*
X017991Y035655D01*
X017840Y035655D01*
X017765Y035580D01*
X017765Y035205D02*
X018066Y035205D01*
X020485Y035850D02*
X020485Y033850D01*
X024315Y033850D01*
X024315Y035850D01*
X020485Y035850D01*
X020485Y032850D02*
X020485Y030850D01*
X024315Y030850D01*
X024315Y032850D01*
X020485Y032850D01*
X018066Y032205D02*
X017765Y032205D01*
X017916Y032205D02*
X017916Y032655D01*
X017765Y032505D01*
X017605Y032205D02*
X017305Y032205D01*
X017305Y032655D01*
X016465Y030850D02*
X016315Y030850D01*
X016240Y030775D01*
X016079Y030775D02*
X016004Y030850D01*
X015854Y030850D01*
X015779Y030775D01*
X015779Y030475D01*
X015854Y030400D01*
X016004Y030400D01*
X016079Y030475D01*
X016240Y030400D02*
X016540Y030700D01*
X016540Y030775D01*
X016465Y030850D01*
X016540Y030400D02*
X016240Y030400D01*
X016125Y026925D02*
X015975Y026925D01*
X015900Y026850D01*
X015900Y026550D01*
X015975Y026475D01*
X016125Y026475D01*
X016200Y026550D01*
X016360Y026475D02*
X016661Y026475D01*
X016511Y026475D02*
X016511Y026925D01*
X016360Y026775D01*
X016200Y026850D02*
X016125Y026925D01*
X016821Y026850D02*
X016821Y026775D01*
X016896Y026700D01*
X017046Y026700D01*
X017121Y026625D01*
X017121Y026550D01*
X017046Y026475D01*
X016896Y026475D01*
X016821Y026550D01*
X016821Y026625D01*
X016896Y026700D01*
X017046Y026700D02*
X017121Y026775D01*
X017121Y026850D01*
X017046Y026925D01*
X016896Y026925D01*
X016821Y026850D01*
X017305Y026155D02*
X017305Y025705D01*
X017605Y025705D01*
X017765Y025780D02*
X017840Y025705D01*
X017991Y025705D01*
X018066Y025780D01*
X018066Y025855D01*
X017991Y025930D01*
X017765Y025930D01*
X017765Y025780D01*
X017765Y025930D02*
X017916Y026080D01*
X018066Y026155D01*
X020485Y026350D02*
X020485Y024350D01*
X024315Y024350D01*
X024315Y026350D01*
X020485Y026350D01*
X020485Y023350D02*
X020485Y021350D01*
X024315Y021350D01*
X024315Y023350D01*
X020485Y023350D01*
X018066Y023155D02*
X017765Y023155D01*
X017765Y022930D01*
X017916Y023005D01*
X017991Y023005D01*
X018066Y022930D01*
X018066Y022780D01*
X017991Y022705D01*
X017840Y022705D01*
X017765Y022780D01*
X017605Y022705D02*
X017305Y022705D01*
X017305Y023155D01*
X016540Y021350D02*
X016240Y021350D01*
X016240Y021125D01*
X016390Y021200D01*
X016465Y021200D01*
X016540Y021125D01*
X016540Y020975D01*
X016465Y020900D01*
X016315Y020900D01*
X016240Y020975D01*
X016079Y020900D02*
X015779Y020900D01*
X015929Y020900D02*
X015929Y021350D01*
X015779Y021200D01*
X015619Y021275D02*
X015544Y021350D01*
X015394Y021350D01*
X015319Y021275D01*
X015319Y020975D01*
X015394Y020900D01*
X015544Y020900D01*
X015619Y020975D01*
X015975Y017425D02*
X015900Y017350D01*
X015900Y017050D01*
X015975Y016975D01*
X016125Y016975D01*
X016200Y017050D01*
X016360Y017050D02*
X016435Y016975D01*
X016586Y016975D01*
X016661Y017050D01*
X016661Y017125D01*
X016586Y017200D01*
X016511Y017200D01*
X016586Y017200D02*
X016661Y017275D01*
X016661Y017350D01*
X016586Y017425D01*
X016435Y017425D01*
X016360Y017350D01*
X016200Y017350D02*
X016125Y017425D01*
X015975Y017425D01*
X016821Y017350D02*
X016896Y017425D01*
X017046Y017425D01*
X017121Y017350D01*
X016821Y017050D01*
X016896Y016975D01*
X017046Y016975D01*
X017121Y017050D01*
X017121Y017350D01*
X016821Y017350D02*
X016821Y017050D01*
X017305Y016655D02*
X017305Y016205D01*
X017605Y016205D01*
X017765Y016205D02*
X018066Y016205D01*
X017916Y016205D02*
X017916Y016655D01*
X017765Y016505D01*
X018226Y016580D02*
X018301Y016655D01*
X018451Y016655D01*
X018526Y016580D01*
X018226Y016280D01*
X018301Y016205D01*
X018451Y016205D01*
X018526Y016280D01*
X018526Y016580D01*
X018226Y016580D02*
X018226Y016280D01*
X020485Y016850D02*
X020485Y014850D01*
X024315Y014850D01*
X024315Y016850D01*
X020485Y016850D01*
X020485Y013850D02*
X020485Y011850D01*
X024315Y011850D01*
X024315Y013850D01*
X020485Y013850D01*
X018066Y013580D02*
X018066Y013280D01*
X017991Y013205D01*
X017840Y013205D01*
X017765Y013280D01*
X017840Y013430D02*
X018066Y013430D01*
X018066Y013580D02*
X017991Y013655D01*
X017840Y013655D01*
X017765Y013580D01*
X017765Y013505D01*
X017840Y013430D01*
X017605Y013205D02*
X017305Y013205D01*
X017305Y013655D01*
X016540Y011850D02*
X016240Y011850D01*
X016079Y011775D02*
X016004Y011850D01*
X015854Y011850D01*
X015779Y011775D01*
X015619Y011775D02*
X015544Y011850D01*
X015394Y011850D01*
X015319Y011775D01*
X015319Y011475D01*
X015394Y011400D01*
X015544Y011400D01*
X015619Y011475D01*
X015779Y011400D02*
X016079Y011700D01*
X016079Y011775D01*
X016240Y011475D02*
X016240Y011400D01*
X016240Y011475D02*
X016540Y011775D01*
X016540Y011850D01*
X016079Y011400D02*
X015779Y011400D01*
X015975Y007925D02*
X015900Y007850D01*
X015900Y007550D01*
X015975Y007475D01*
X016125Y007475D01*
X016200Y007550D01*
X016360Y007700D02*
X016661Y007700D01*
X016821Y007850D02*
X016896Y007925D01*
X017046Y007925D01*
X017121Y007850D01*
X017121Y007775D01*
X016821Y007475D01*
X017121Y007475D01*
X017305Y007155D02*
X017305Y006705D01*
X017605Y006705D01*
X017765Y006705D02*
X018066Y006705D01*
X017916Y006705D02*
X017916Y007155D01*
X017765Y007005D01*
X018226Y006930D02*
X018526Y006930D01*
X018451Y006705D02*
X018451Y007155D01*
X018226Y006930D01*
X016586Y007475D02*
X016586Y007925D01*
X016360Y007700D01*
X016200Y007850D02*
X016125Y007925D01*
X015975Y007925D01*
X020485Y007350D02*
X020485Y005350D01*
X024315Y005350D01*
X024315Y007350D01*
X020485Y007350D01*
X020485Y004350D02*
X020485Y002350D01*
X024315Y002350D01*
X024315Y004350D01*
X020485Y004350D01*
X018526Y004080D02*
X018526Y004005D01*
X018451Y003930D01*
X018526Y003855D01*
X018526Y003780D01*
X018451Y003705D01*
X018301Y003705D01*
X018226Y003780D01*
X018066Y003705D02*
X017765Y003705D01*
X017916Y003705D02*
X017916Y004155D01*
X017765Y004005D01*
X017605Y003705D02*
X017305Y003705D01*
X017305Y004155D01*
X018226Y004080D02*
X018301Y004155D01*
X018451Y004155D01*
X018526Y004080D01*
X018451Y003930D02*
X018376Y003930D01*
X016540Y002275D02*
X016465Y002350D01*
X016315Y002350D01*
X016240Y002275D01*
X016240Y002200D01*
X016315Y002125D01*
X016540Y002125D01*
X016540Y001975D02*
X016540Y002275D01*
X016540Y001975D02*
X016465Y001900D01*
X016315Y001900D01*
X016240Y001975D01*
X016079Y001975D02*
X016004Y001900D01*
X015854Y001900D01*
X015779Y001975D01*
X015619Y001975D02*
X015544Y001900D01*
X015394Y001900D01*
X015319Y001975D01*
X015319Y002275D01*
X015394Y002350D01*
X015544Y002350D01*
X015619Y002275D01*
X015779Y002275D02*
X015854Y002350D01*
X016004Y002350D01*
X016079Y002275D01*
X016079Y002200D01*
X016004Y002125D01*
X016079Y002050D01*
X016079Y001975D01*
X016004Y002125D02*
X015929Y002125D01*
X009650Y002850D02*
X009650Y007000D01*
X009650Y012350D02*
X009650Y016500D01*
X009650Y021850D02*
X009650Y026000D01*
X009650Y031350D02*
X009650Y035500D01*
X025350Y033400D02*
X025350Y030300D01*
X028450Y030300D01*
X028450Y033400D01*
X025350Y033400D01*
X029350Y032050D02*
X029350Y035150D01*
X032450Y035150D01*
X032450Y032050D01*
X029350Y032050D01*
X036650Y036050D02*
X036725Y035975D01*
X036875Y035975D01*
X036950Y036050D01*
X037110Y035975D02*
X037411Y035975D01*
X037261Y035975D02*
X037261Y036425D01*
X037110Y036275D01*
X036950Y036350D02*
X036875Y036425D01*
X036725Y036425D01*
X036650Y036350D01*
X036650Y036050D01*
X037571Y035975D02*
X037871Y036275D01*
X037871Y036350D01*
X037796Y036425D01*
X037646Y036425D01*
X037571Y036350D01*
X037571Y035975D02*
X037871Y035975D01*
X038809Y034620D02*
X038809Y034170D01*
X039035Y034395D01*
X038734Y034395D01*
X039195Y034620D02*
X039495Y034620D01*
X039495Y034170D01*
X041485Y033850D02*
X045315Y033850D01*
X045315Y035850D01*
X041485Y035850D01*
X041485Y033850D01*
X041485Y032850D02*
X041485Y030850D01*
X045315Y030850D01*
X045315Y032850D01*
X041485Y032850D01*
X039495Y031620D02*
X039195Y031620D01*
X039035Y031545D02*
X038960Y031620D01*
X038809Y031620D01*
X038734Y031545D01*
X038734Y031470D01*
X038809Y031395D01*
X038884Y031395D01*
X038809Y031395D02*
X038734Y031320D01*
X038734Y031245D01*
X038809Y031170D01*
X038960Y031170D01*
X039035Y031245D01*
X039495Y031170D02*
X039495Y031620D01*
X037661Y030725D02*
X037661Y030425D01*
X037586Y030350D01*
X037435Y030350D01*
X037360Y030425D01*
X037200Y030425D02*
X037125Y030350D01*
X036975Y030350D01*
X036900Y030425D01*
X036900Y030725D01*
X036975Y030800D01*
X037125Y030800D01*
X037200Y030725D01*
X037360Y030725D02*
X037360Y030650D01*
X037435Y030575D01*
X037661Y030575D01*
X037661Y030725D02*
X037586Y030800D01*
X037435Y030800D01*
X037360Y030725D01*
X037336Y026925D02*
X037185Y026925D01*
X037110Y026850D01*
X036950Y026850D02*
X036875Y026925D01*
X036725Y026925D01*
X036650Y026850D01*
X036650Y026550D01*
X036725Y026475D01*
X036875Y026475D01*
X036950Y026550D01*
X037110Y026475D02*
X037411Y026775D01*
X037411Y026850D01*
X037336Y026925D01*
X037571Y026700D02*
X037796Y026925D01*
X037796Y026475D01*
X037871Y026700D02*
X037571Y026700D01*
X037411Y026475D02*
X037110Y026475D01*
X038734Y025045D02*
X038809Y025120D01*
X038960Y025120D01*
X039035Y025045D01*
X039035Y024970D01*
X038960Y024895D01*
X038809Y024895D01*
X038734Y024970D01*
X038734Y025045D01*
X038809Y024895D02*
X038734Y024820D01*
X038734Y024745D01*
X038809Y024670D01*
X038960Y024670D01*
X039035Y024745D01*
X039035Y024820D01*
X038960Y024895D01*
X039195Y025120D02*
X039495Y025120D01*
X039495Y024670D01*
X041485Y024350D02*
X045315Y024350D01*
X045315Y026350D01*
X041485Y026350D01*
X041485Y024350D01*
X041485Y023350D02*
X041485Y021350D01*
X045315Y021350D01*
X045315Y023350D01*
X041485Y023350D01*
X039495Y022120D02*
X039195Y022120D01*
X039035Y022120D02*
X039035Y022045D01*
X038734Y021745D01*
X038734Y021670D01*
X039035Y021670D01*
X039495Y021670D02*
X039495Y022120D01*
X037971Y021300D02*
X037971Y020850D01*
X037821Y020850D02*
X038121Y020850D01*
X037821Y021150D02*
X037971Y021300D01*
X037661Y021225D02*
X037586Y021300D01*
X037435Y021300D01*
X037360Y021225D01*
X037200Y021225D02*
X037125Y021300D01*
X036975Y021300D01*
X036900Y021225D01*
X036900Y020925D01*
X036975Y020850D01*
X037125Y020850D01*
X037200Y020925D01*
X037360Y020850D02*
X037661Y021150D01*
X037661Y021225D01*
X037661Y020850D02*
X037360Y020850D01*
X037336Y017425D02*
X037185Y017425D01*
X037110Y017350D01*
X036950Y017350D02*
X036875Y017425D01*
X036725Y017425D01*
X036650Y017350D01*
X036650Y017050D01*
X036725Y016975D01*
X036875Y016975D01*
X036950Y017050D01*
X037110Y017050D02*
X037185Y016975D01*
X037336Y016975D01*
X037411Y017050D01*
X037411Y017125D01*
X037336Y017200D01*
X037261Y017200D01*
X037336Y017200D02*
X037411Y017275D01*
X037411Y017350D01*
X037336Y017425D01*
X037571Y017200D02*
X037796Y017200D01*
X037871Y017125D01*
X037871Y017050D01*
X037796Y016975D01*
X037646Y016975D01*
X037571Y017050D01*
X037571Y017200D01*
X037721Y017350D01*
X037871Y017425D01*
X038274Y015620D02*
X038574Y015620D01*
X038274Y015320D01*
X038274Y015245D01*
X038349Y015170D01*
X038499Y015170D01*
X038574Y015245D01*
X038884Y015170D02*
X038884Y015620D01*
X038734Y015620D02*
X039035Y015620D01*
X039195Y015620D02*
X039495Y015620D01*
X039495Y015170D01*
X039035Y015320D02*
X038884Y015170D01*
X041485Y014850D02*
X041485Y016850D01*
X045315Y016850D01*
X045315Y014850D01*
X041485Y014850D01*
X041485Y013850D02*
X041485Y011850D01*
X045315Y011850D01*
X045315Y013850D01*
X041485Y013850D01*
X039495Y012620D02*
X039195Y012620D01*
X039035Y012620D02*
X038734Y012620D01*
X038884Y012620D02*
X038884Y012170D01*
X039035Y012320D01*
X038574Y012320D02*
X038424Y012170D01*
X038424Y012620D01*
X038574Y012620D02*
X038274Y012620D01*
X038046Y011800D02*
X037896Y011800D01*
X037821Y011725D01*
X037661Y011725D02*
X037661Y011650D01*
X037586Y011575D01*
X037661Y011500D01*
X037661Y011425D01*
X037586Y011350D01*
X037435Y011350D01*
X037360Y011425D01*
X037200Y011425D02*
X037125Y011350D01*
X036975Y011350D01*
X036900Y011425D01*
X036900Y011725D01*
X036975Y011800D01*
X037125Y011800D01*
X037200Y011725D01*
X037360Y011725D02*
X037435Y011800D01*
X037586Y011800D01*
X037661Y011725D01*
X037586Y011575D02*
X037511Y011575D01*
X037821Y011425D02*
X037896Y011350D01*
X038046Y011350D01*
X038121Y011425D01*
X038121Y011500D01*
X038046Y011575D01*
X037971Y011575D01*
X038046Y011575D02*
X038121Y011650D01*
X038121Y011725D01*
X038046Y011800D01*
X039495Y012170D02*
X039495Y012620D01*
X037796Y007925D02*
X037871Y007850D01*
X037871Y007775D01*
X037796Y007700D01*
X037646Y007700D01*
X037571Y007775D01*
X037571Y007850D01*
X037646Y007925D01*
X037796Y007925D01*
X037796Y007700D02*
X037871Y007625D01*
X037871Y007550D01*
X037796Y007475D01*
X037646Y007475D01*
X037571Y007550D01*
X037571Y007625D01*
X037646Y007700D01*
X037411Y007700D02*
X037110Y007700D01*
X037336Y007925D01*
X037336Y007475D01*
X036950Y007550D02*
X036875Y007475D01*
X036725Y007475D01*
X036650Y007550D01*
X036650Y007850D01*
X036725Y007925D01*
X036875Y007925D01*
X036950Y007850D01*
X038349Y006120D02*
X038274Y006045D01*
X038274Y005970D01*
X038349Y005895D01*
X038574Y005895D01*
X038574Y006045D01*
X038499Y006120D01*
X038349Y006120D01*
X038574Y005895D02*
X038424Y005745D01*
X038274Y005670D01*
X038884Y005670D02*
X038884Y006120D01*
X038734Y006120D02*
X039035Y006120D01*
X039195Y006120D02*
X039495Y006120D01*
X039495Y005670D01*
X039035Y005820D02*
X038884Y005670D01*
X041485Y005350D02*
X041485Y007350D01*
X045315Y007350D01*
X045315Y005350D01*
X041485Y005350D01*
X041485Y004350D02*
X041485Y002350D01*
X045315Y002350D01*
X045315Y004350D01*
X041485Y004350D01*
X039495Y003120D02*
X039195Y003120D01*
X039035Y003120D02*
X038734Y003120D01*
X038884Y003120D02*
X038884Y002670D01*
X039035Y002820D01*
X038574Y002895D02*
X038424Y002820D01*
X038349Y002820D01*
X038274Y002895D01*
X038274Y003045D01*
X038349Y003120D01*
X038499Y003120D01*
X038574Y003045D01*
X038574Y002895D02*
X038574Y002670D01*
X038274Y002670D01*
X038121Y002300D02*
X037821Y002300D01*
X037821Y002075D01*
X037971Y002150D01*
X038046Y002150D01*
X038121Y002075D01*
X038121Y001925D01*
X038046Y001850D01*
X037896Y001850D01*
X037821Y001925D01*
X037661Y002075D02*
X037360Y002075D01*
X037586Y002300D01*
X037586Y001850D01*
X037200Y001925D02*
X037125Y001850D01*
X036975Y001850D01*
X036900Y001925D01*
X036900Y002225D01*
X036975Y002300D01*
X037125Y002300D01*
X037200Y002225D01*
X039495Y002670D02*
X039495Y003120D01*
X032450Y003550D02*
X032450Y006650D01*
X029350Y006650D01*
X029350Y003550D01*
X032450Y003550D01*
X028450Y004900D02*
X028450Y001800D01*
X025350Y001800D01*
X025350Y004900D01*
X028450Y004900D01*
X028450Y011300D02*
X025350Y011300D01*
X025350Y014400D01*
X028450Y014400D01*
X028450Y011300D01*
X029350Y013050D02*
X029350Y016150D01*
X032450Y016150D01*
X032450Y013050D01*
X029350Y013050D01*
X028450Y020800D02*
X025350Y020800D01*
X025350Y023900D01*
X028450Y023900D01*
X028450Y020800D01*
X029350Y022550D02*
X029350Y025650D01*
X032450Y025650D01*
X032450Y022550D01*
X029350Y022550D01*
X046600Y023900D02*
X046600Y020800D01*
X049700Y020800D01*
X049700Y023900D01*
X046600Y023900D01*
X053500Y023050D02*
X057500Y023050D01*
X057500Y029350D01*
X053500Y029350D01*
X053500Y023050D01*
X049700Y030300D02*
X046600Y030300D01*
X046600Y033400D01*
X049700Y033400D01*
X049700Y030300D01*
X053850Y034350D02*
X053850Y037450D01*
X056950Y037450D01*
X056950Y034350D01*
X053850Y034350D01*
X058507Y038289D02*
X063094Y038289D01*
X063094Y001281D01*
X058507Y001281D01*
X058507Y038289D01*
X049700Y014400D02*
X046600Y014400D01*
X046600Y011300D01*
X049700Y011300D01*
X049700Y014400D01*
X054150Y009150D02*
X057250Y009150D01*
X057250Y006050D01*
X054150Y006050D01*
X054150Y009150D01*
X049700Y004900D02*
X049700Y001800D01*
X046600Y001800D01*
X046600Y004900D01*
X049700Y004900D01*
M02*
